<svg xmlns="http://www.w3.org/2000/svg" width="334" height="268" fill="none" viewBox="0 0 334 268">
    <path fill="url(#a)" d="M68.819 159.498l16.648-9.156-24.184-13.301 3.855-6.554 66.857-3.71 7.272 4-36.013 19.806 10.69 5.879-8.674 4.771-10.69-5.879-16.649 9.156-9.112-5.012zm8.236-23.324l17.087 9.397 20.854-11.469-37.94 2.072zm40.93 51.328c-4.907-2.699-7.711-5.719-8.412-9.06-.584-3.341.643-6.778 3.681-10.312 3.037-3.534 7.623-6.988 13.756-10.361 6.134-3.374 12.413-5.896 18.839-7.566 6.426-1.671 12.647-2.329 18.664-1.976 6.133.353 11.654 1.879 16.56 4.578 4.966 2.731 7.74 5.767 8.325 9.108.642 3.309-.555 6.731-3.593 10.265-2.979 3.566-7.536 7.035-13.669 10.409-6.134 3.373-12.443 5.879-18.927 7.517-6.425 1.671-12.676 2.346-18.751 2.024-6.017-.353-11.508-1.895-16.473-4.626zm8.587-4.723c4.206 2.314 9.463 3.02 15.772 2.121 6.367-.868 13.231-3.325 20.592-7.373 7.36-4.048 11.829-7.823 13.406-11.325 1.635-3.47.35-6.361-3.856-8.674-4.205-2.313-9.492-3.036-15.859-2.169-6.309.9-13.144 3.374-20.504 7.421-7.36 4.048-11.858 7.807-13.494 11.277-1.577 3.502-.263 6.409 3.943 8.722zm49.807 35.874l16.648-9.156-24.184-13.3 3.856-6.554 66.856-3.711 7.272 4-36.013 19.806 10.69 5.879-8.674 4.771-10.69-5.879-16.649 9.156-9.112-5.012zm8.236-23.324l17.087 9.397 20.854-11.469-37.941 2.072z"/>
    <path fill="#FCB69F" d="M27.149 19l9.116 13.149-13.149 9.116L14 28.115z" opacity=".847"/>
    <path fill="#FCB69F" d="M108.817 52l15.75 2.817-2.817 15.75L106 67.75z" opacity=".27"/>
    <path fill="#FCB69F" d="M8 126.978L23.877 125l1.978 15.878-15.877 1.977z" opacity=".302"/>
    <path fill="#FCB69F" d="M34.764 259.15L26 245.763 39.387 237l8.763 13.386z" opacity=".709"/>
    <path fill="#FCB69F" d="M281.893 251.919l-.92 15.974-15.973-.92.92-15.974z" opacity=".742"/>
    <path fill="#FCB69F" d="M313.489 167l6.787 14.49-14.49 6.786-6.786-14.49z" opacity=".387"/>
    <path fill="#FCB69F" d="M164 23.761L172.163 10l13.76 8.163-8.162 13.76z" opacity=".928"/>
    <path fill="#FCB69F" d="M289 5.28L304.104 0l5.28 15.104-15.104 5.28z" opacity=".548"/>
    <path fill="#FCB69F" d="M174.649 95l15.578 3.649-3.648 15.578L171 110.578z" opacity=".079"/>
    <rect width="5" height="5" x="102.942" y="225.888" fill="#FCB69F" opacity=".908" rx="2.5" transform="rotate(167.83 102.942 225.888)"/>
    <rect width="5" height="5" x="71.618" y="85.956" fill="#FCB69F" opacity=".494" rx="2.5" transform="rotate(172.393 71.618 85.956)"/>
    <rect width="5" height="5" x="326.063" y="125.367" fill="#FCB69F" opacity=".133" rx="2.5" transform="rotate(132.337 326.063 125.367)"/>
    <rect width="5" height="5" x="228.72" y="47.37" fill="#FCB69F" opacity=".553" rx="2.5" transform="rotate(-160.734 228.72 47.37)"/>
    <rect width="5" height="5" x="246" y="258.863" fill="#FCB69F" opacity=".312" rx="2.5" transform="rotate(-76.564 246 258.863)"/>
    <rect width="5" height="5" x="271.748" y="149.314" fill="#FCB69F" opacity=".995" rx="2.5" transform="rotate(-161.748 271.748 149.314)"/>
    <path fill="#FCB69F" d="M270 79h16v16h-16z"/>
    <defs>
        <linearGradient id="a" x1="183.764" x2="153.892" y1="151.394" y2="205.71" gradientUnits="userSpaceOnUse">
            <stop stop-color="#FCB69F"/>
            <stop offset="1" stop-color="#FEDFC6"/>
        </linearGradient>
    </defs>
</svg>
