<svg xmlns="http://www.w3.org/2000/svg" width="1126" height="683" fill="none" viewBox="0 0 1126 683">
    <path fill="#E0E0E0" d="M0 0h1126v683H0z"/>
    <path fill="#fff" d="M434 443.798C434 458.822 446.23 471 461.202 471h203.596C679.822 471 692 458.77 692 443.798V240.202C692 225.178 679.77 213 664.798 213H461.202C446.178 213 434 225.23 434 240.202v203.596zm230.798 14.286H461.202c-7.855 0-14.286-6.431-14.286-14.286v-34.003l48.922-48.922 41.805 41.805a6.428 6.428 0 0 0 9.12 0l75.492-75.492 56.829 56.83v59.782c0 7.855-6.431 14.286-14.286 14.286zM461.202 225.916h203.596c7.855 0 14.286 6.431 14.286 14.286v125.521l-52.296-52.243a6.426 6.426 0 0 0-9.12 0l-75.491 75.491-41.806-41.805a6.428 6.428 0 0 0-9.12 0l-44.335 44.336v-151.3c0-7.855 6.431-14.286 14.286-14.286z"/>
    <path fill="#fff" d="M513.973 316.379c18.134 0 32.843-14.761 32.843-32.843 0-18.082-14.761-32.843-32.843-32.843-18.083 0-32.843 14.761-32.843 32.843 0 18.082 14.708 32.843 32.843 32.843zm0-52.77c11.018 0 19.927 8.962 19.927 19.927s-8.962 19.927-19.927 19.927c-10.966 0-19.928-8.962-19.928-19.927s8.91-19.927 19.928-19.927z"/>
</svg>
