<svg xmlns="http://www.w3.org/2000/svg" width="375" height="353" fill="none" viewBox="0 0 375 353">
    <g fill-rule="evenodd" clip-path="url(#a)" clip-rule="evenodd">
        <path fill="#FED9C0" d="M434.687-8.852c19.673 17.92 55.84 27.166 54.727 55.758-1.147 29.458-43.051 46.231-59.751 73.337-14.404 23.379-1.426 42.579-24.055 58.764-22.593 16.161-56.629 17.385-82.287 17.3-22.641-.076-51.212 5.2-76.712 0-8.769-2.35-43.665-7.419-56.001-29.8-12.426-22.543-2.81-56.842 0-84.5 3.207-31.573-14.897-62.597 4.1-90.859 19.398-28.859 67.345-13.926 114.402-24.64 30.809-7.016 36.005-34.61 62.5-23.5 22.761 9.544 45.283 31.932 63.077 48.14z"/>
        <path fill="#FEEED9" d="M102.138 345.912C74.968 350.668 43.806 353.314-.673 336c0-80.5.5-131 .5-182 0 0 74.838-34.362 138 0 47.783 25.996 45.5 88.5 45.5 88.5s4 88.5-81.189 103.412z"/>
    </g>
    <defs>
        <clipPath id="a">
            <path fill="#fff" d="M0 0h375v353H0z"/>
        </clipPath>
    </defs>
</svg>
