<svg xmlns="http://www.w3.org/2000/svg" width="14" height="14" fill="none" viewBox="0 0 14 14">
    <path fill="#FCB7A0" d="M.993 7.677h10.001c1.45 0 2.63-1.18 2.63-2.63a2.633 2.633 0 0 0-2.623-2.63c-.143-.001-1.069.011-1.76.685-.463.452-.698 1.072-.698 1.844a.617.617 0 1 0 1.235 0c0-.423.107-.744.319-.954.33-.328.844-.34.885-.34h.012c.77 0 1.396.626 1.396 1.395 0 .77-.626 1.396-1.396 1.396H.993a.617.617 0 0 0 0 1.234z"/>
    <path fill="#FCB7A0" d="M.993 5.26H5.76c1.45 0 2.63-1.18 2.63-2.63A2.632 2.632 0 0 0 5.766 0c-.144-.002-1.068.011-1.759.685-.463.451-.698 1.072-.698 1.844a.617.617 0 1 0 1.234 0c0-.423.108-.744.32-.954.33-.328.843-.34.884-.34h.013c.77 0 1.395.625 1.395 1.395 0 .769-.625 1.395-1.395 1.395H.993a.617.617 0 0 0 0 1.234zM10.994 8.74H.993a.617.617 0 0 0 0 1.235h10.001c.77 0 1.396.626 1.396 1.395 0 .77-.626 1.396-1.396 1.396h-.012c-.041 0-.555-.013-.885-.34-.212-.21-.32-.532-.32-.955a.617.617 0 1 0-1.234 0c0 .772.235 1.393.698 1.844.664.647 1.542.685 1.739.685H11a2.633 2.633 0 0 0 2.624-2.63c0-1.45-1.18-2.63-2.63-2.63z"/>
</svg>
