<svg xmlns="http://www.w3.org/2000/svg" width="10" height="10" fill="none" viewBox="0 0 10 10">
    <path fill="#FCB8A0" d="M9.818.182c.21.247.238.6.086 1.056-.152.456-.41.866-.77 1.227l-1.15 1.149L9.127 8.58c.024.09-.005.169-.085.236l-.914.685a.201.201 0 0 1-.135.042.158.158 0 0 1-.05-.007.197.197 0 0 1-.15-.114l-1.99-3.625-1.849 1.848.379 1.385a.217.217 0 0 1-.058.22l-.685.686a.222.222 0 0 1-.164.064h-.014a.256.256 0 0 1-.171-.093L1.89 8.11.093 6.761C.041 6.727.01 6.673.001 6.596a.245.245 0 0 1 .064-.178l.685-.692a.222.222 0 0 1 .164-.064c.028 0 .047.002.057.007l1.384.378 1.848-1.848L.58 2.209a.239.239 0 0 1-.122-.172.22.22 0 0 1 .064-.193l.914-.913c.066-.062.138-.08.214-.057l4.745 1.134L7.535.867c.362-.362.77-.619 1.227-.77.457-.153.809-.125 1.056.085z"/>
</svg>
