<svg xmlns="http://www.w3.org/2000/svg" width="40" height="40" fill="none" viewBox="0 0 40 40">
    <path fill="#565656" d="M9.063 10.938a.782.782 0 1 0-.001-1.564.782.782 0 0 0 0 1.563z"/>
    <path fill="#565656" d="M4.375 28.125h5.334L4.312 38.868A.782.782 0 0 0 5.01 40h3.56a.782.782 0 0 0 .698-.43l5.75-11.445h2.638v11.094c0 .431.35.781.782.781h3.125c.431 0 .78-.35.78-.781V28.125h2.64l5.75 11.444a.78.78 0 0 0 .697.431h3.56c.581 0 .96-.613.699-1.132L30.29 28.125h5.334a2.343 2.343 0 0 0 .781-4.553V5.469a2.346 2.346 0 0 0-2.343-2.344h-9.376v-.781A2.346 2.346 0 0 0 22.345 0h-4.688a2.346 2.346 0 0 0-2.343 2.344v.781H5.937a2.346 2.346 0 0 0-2.343 2.344V23.57a2.345 2.345 0 0 0 .781 4.554zm3.713 10.313H6.277l5.18-10.313h1.812L8.088 38.438zm12.693 0H19.22V28.124h1.562v10.313zm12.943 0h-1.812l-5.181-10.313h1.811l5.182 10.313zm1.901-11.876H4.375a.782.782 0 0 1 0-1.562h31.25a.782.782 0 0 1 0 1.563zm-10.614-3.125l-2.343-2.343 4.363-4.364 6.708 6.707H25.01zm-4.001-1.79l1.791 1.79H6.261l8.27-8.27 6.479 6.48zM16.875 2.343c0-.431.35-.781.781-.781h4.688c.43 0 .781.35.781.78v2.345h-6.25V2.344zM5.937 4.688h9.375v.78c0 .432.35.782.782.782h7.812c.432 0 .782-.35.782-.781v-.782h9.375c.43 0 .78.35.78.782v16.863l-7.26-7.26a.781.781 0 0 0-1.104 0l-4.916 4.917-6.48-6.479a.781.781 0 0 0-1.104 0l-8.823 8.822V5.47c0-.431.35-.782.782-.782z"/>
    <path fill="#565656" d="M21.563 15.625a2.346 2.346 0 0 0 2.343-2.344 2.346 2.346 0 0 0-2.343-2.344 2.346 2.346 0 0 0-2.344 2.344 2.346 2.346 0 0 0 2.343 2.344zm0-3.125a.782.782 0 1 1-.002 1.564.782.782 0 0 1 .002-1.564zM27.813 10.938h3.125a.781.781 0 1 0 0-1.563h-3.125a.781.781 0 1 0 0 1.563zM12.188 10.938h4.687a.781.781 0 1 0 0-1.563h-4.688a.781.781 0 1 0 0 1.563z"/>
</svg>
