<svg xmlns="http://www.w3.org/2000/svg" width="40" height="40" fill="none" viewBox="0 0 40 40">
    <path fill="#fff" d="M26.655.087a2.03 2.03 0 1 0 0 4.058 2.03 2.03 0 0 0 0-4.058zm0 2.706a.677.677 0 1 1 0-1.354.677.677 0 0 1 0 1.354zM20.567 3.47a3.382 3.382 0 1 0 0 6.763 3.382 3.382 0 0 0 0-6.764zm0 5.41a2.03 2.03 0 1 1 0-4.058 2.03 2.03 0 0 1 0 4.059zM11.096 4.822a2.706 2.706 0 1 0 0 5.412 2.706 2.706 0 0 0 0-5.412zm0 4.059a1.353 1.353 0 1 1 0-2.706 1.353 1.353 0 0 1 0 2.706zM7.037.087a2.03 2.03 0 1 0 0 4.058 2.03 2.03 0 0 0 0-4.058zm0 2.706a.677.677 0 1 1 0-1.354.677.677 0 0 1 0 1.354zM23.46 21.819l1.28-.436 4.375 12.86-1.28.435-4.376-12.86zM19.998 22.992l1.28-.435 4.376 12.86-1.28.435-4.376-12.86zM26.92 20.639l1.28-.436 4.374 12.86-1.28.435-4.374-12.86z"/>
    <path fill="#fff" d="M39.795 25.087L36.6 15.69a3.81 3.81 0 0 0-4.835-2.38l-1.834.623-.118-.348a4.854 4.854 0 0 0-8.456-1.385 3.753 3.753 0 0 0-3.117 1.285 3.292 3.292 0 0 0-.446-.112 3.816 3.816 0 0 0-1.507.04 4.855 4.855 0 0 0-8.14 2.672l-.064.363-1.907-.334a3.81 3.81 0 0 0-4.41 3.097L.056 28.989A3.816 3.816 0 0 0 3.155 33.4l1.907.333-.06.348a1.721 1.721 0 0 0 .096 3.372l14.41 2.52a1.722 1.722 0 0 0 1.856-.983c.3.069.615.051.907-.05l13.849-4.712a1.722 1.722 0 0 0-.424-3.347l-.114-.333 1.832-.623a3.816 3.816 0 0 0 2.381-4.837zM28.752 14.66l.237.698-4.655 1.583-.239-.698 4.657-1.583zm-11.257.516a2.42 2.42 0 0 1 .886-.127.67.67 0 0 0 .608-.324h.003a2.449 2.449 0 0 1 2.56-1.138.676.676 0 0 0 .702-.305 3.46 3.46 0 0 1 1.83-1.45 3.506 3.506 0 0 1 4.162 1.569l-5.23 1.78a.676.676 0 0 0-.42.858l1.01 2.968a.891.891 0 0 1-1.687.573l-.338-.989a.676.676 0 1 0-1.28.436.89.89 0 0 1-1.687.573l-.676-1.979a.677.677 0 0 0-.858-.422l-1.237.42a2.453 2.453 0 0 1 1.652-2.443zm-.38 4.224l-.697.237-.237-.698.697-.237.238.698zm-3.58-5.931h.002a3.463 3.463 0 0 1 2.037 1.15.669.669 0 0 0 .12.101 3.834 3.834 0 0 0-1.088 1.827l-4.938-.884a3.506 3.506 0 0 1 3.867-2.194zm-4.17 3.52l5.138.919c.027.256.08.508.159.752l-5.424-.947.126-.724zm-5.98 15.077a2.462 2.462 0 0 1-1.996-2.845L3.1 19.443a2.456 2.456 0 0 1 2.841-1.998h.004l1.907.333-.127.727-1.392-.244a2.244 2.244 0 0 0-2.597 1.823v.003l-1.53 8.75a2.246 2.246 0 0 0 1.826 2.596l1.392.244-.127.726-1.913-.337zm4.107-12.229L5.655 30.341l-1.393-.243a.89.89 0 0 1-.724-1.03v-.001l1.53-8.75a.894.894 0 0 1 1.032-.723l1.392.243zM20.168 38.34a.369.369 0 0 1-.427.3L5.33 36.12a.369.369 0 1 1 .128-.726.677.677 0 0 0 .783-.55L9.006 19.04l6.149 1.076 4.714 13.861-.551 3.152a.675.675 0 0 0 .55.783.37.37 0 0 1 .3.427zm15.747-5.86a.368.368 0 0 1-.23.467l-13.849 4.712a.369.369 0 1 1-.239-.698.676.676 0 0 0 .423-.858l-5.166-15.188.806-.274a2.236 2.236 0 0 0 3.46.183 2.244 2.244 0 0 0 3.767-2.252l-.12-.348 4.656-1.585 5.167 15.188c.12.353.504.543.858.423.193-.065.401.038.467.23zM31.04 17.19l1.338-.455a.89.89 0 0 1 1.13.556v.001L36.37 25.7a.892.892 0 0 1-.556 1.13l-1.338.456L31.04 17.19zm5.94 11.45l-1.832.624-.24-.698 1.338-.456a2.246 2.246 0 0 0 1.401-2.847l-2.861-8.408a2.248 2.248 0 0 0-2.847-1.402l-1.338.455-.236-.697 1.837-.621a2.459 2.459 0 0 1 3.12 1.536l3.194 9.396a2.461 2.461 0 0 1-1.536 3.118z"/>
    <path fill="#fff" d="M12.018 36.389l2.34-13.38 1.334.233-2.341 13.38-1.333-.233zM15.627 37.022l1.312-7.957 1.334.22-1.312 7.957-1.334-.22zM8.423 35.756l2.34-13.38 1.333.232-2.34 13.38-1.333-.232z"/>
</svg>
