<svg xmlns="http://www.w3.org/2000/svg" width="16" height="16" fill="none" viewBox="0 0 16 16">
    <path fill="#4F4F4F" d="M15.71.29c.334.397.38.96.136 1.69a4.984 4.984 0 0 1-1.233 1.964l-1.838 1.838 1.827 7.946c.038.145-.008.27-.137.377L13.004 15.2a.322.322 0 0 1-.217.068.254.254 0 0 1-.08-.011.316.316 0 0 1-.24-.183l-3.185-5.8-2.957 2.957.605 2.215a.348.348 0 0 1-.09.354l-1.097 1.096a.355.355 0 0 1-.262.103h-.023a.41.41 0 0 1-.274-.148l-2.158-2.877L.15 10.817c-.083-.053-.133-.14-.148-.263a.391.391 0 0 1 .103-.285L1.2 9.16a.356.356 0 0 1 .262-.102c.046 0 .076.004.092.011l2.214.605 2.957-2.957-5.8-3.185a.382.382 0 0 1-.193-.274.352.352 0 0 1 .102-.308L2.296 1.49c.106-.1.22-.13.342-.092l7.592 1.815 1.826-1.826A4.982 4.982 0 0 1 14.02.154c.73-.244 1.293-.198 1.69.137z"/>
</svg>
