<svg xmlns="http://www.w3.org/2000/svg" width="20" height="20" fill="none" viewBox="0 0 20 20">
    <path fill="#FCBBA4" d="M1.579 14.737c0 .947.421 1.79 1.053 2.316v1.894c0 .632.42 1.053 1.052 1.053h1.053c.631 0 1.052-.421 1.052-1.053v-1.052h8.421v1.052c0 .632.422 1.053 1.053 1.053h1.053c.631 0 1.052-.421 1.052-1.053v-1.894c.632-.527 1.053-1.369 1.053-2.316V4.21C18.421.526 14.631 0 10 0 5.368 0 1.579.526 1.579 4.21v10.527zm3.684 1.053c-.842 0-1.579-.737-1.579-1.58 0-.842.737-1.578 1.58-1.578.841 0 1.578.736 1.578 1.579 0 .842-.737 1.579-1.579 1.579zm9.474 0c-.842 0-1.58-.737-1.58-1.58 0-.842.738-1.578 1.58-1.578.842 0 1.579.736 1.579 1.579 0 .842-.737 1.579-1.58 1.579zm1.579-6.316H3.684V4.21h12.632v5.263z"/>
</svg>
