<svg xmlns="http://www.w3.org/2000/svg" width="40" height="40" fill="none" viewBox="0 0 40 40">
    <g fill="#fff" clip-path="url(#a)">
        <path d="M30.833 15.833H7.5a2.503 2.503 0 0 0-2.5 2.5v1.666c0 5.947 3.285 11.34 8.572 14.076a.835.835 0 0 0 .765-1.482 14.131 14.131 0 0 1-7.67-12.594v-1.666c0-.46.373-.834.833-.834h23.334c.46 0 .834.374.834.834v1.666c0 5.322-2.94 10.147-7.672 12.592a.835.835 0 0 0 .765 1.482 15.787 15.787 0 0 0 8.573-14.074v-1.666c0-1.379-1.122-2.5-2.5-2.5z"/>
        <path d="M38.272 33.013a.835.835 0 0 0-.77-.515H.834a.835.835 0 0 0-.59 1.423l1.868 1.87A5.798 5.798 0 0 0 6.238 37.5h25.857a5.809 5.809 0 0 0 4.128-1.709l1.869-1.87a.831.831 0 0 0 .18-.908zm-3.229 1.6a4.143 4.143 0 0 1-2.946 1.22H6.237a4.143 4.143 0 0 1-2.946-1.22l-.447-.447H35.49l-.447.447zM38.388 19.768c-2.245-1.444-5.831.123-6.233.305a.834.834 0 0 0 .691 1.518c.804-.365 3.38-1.23 4.64-.418.569.365.847 1.073.847 2.16 0 3.337-6.73 5.353-9.328 5.85l-.59.117a.833.833 0 1 0 .321 1.633l.585-.115C29.758 30.735 40 28.726 40 23.333c0-1.677-.543-2.875-1.612-3.565zM25.655 8.853c1.355-1.694 1.355-4.346 0-6.039a.832.832 0 1 0-1.302 1.042c.858 1.071.858 2.883-.002 3.958-1.356 1.694-1.356 4.345 0 6.039a.83.83 0 0 0 1.172.13.833.833 0 0 0 .13-1.172c-.86-1.072-.86-2.883.002-3.958zM20.648 8.853c1.357-1.694 1.357-4.346 0-6.039a.833.833 0 1 0-1.302 1.042c.86 1.071.86 2.883-.002 3.958-1.355 1.694-1.355 4.345 0 6.039a.83.83 0 0 0 1.172.13.832.832 0 0 0 .13-1.172c-.858-1.072-.858-2.883.002-3.958zM15.654 8.854c1.355-1.693 1.355-4.345 0-6.038a.833.833 0 0 0-1.302 1.04c.86 1.071.86 2.883 0 3.958-1.358 1.694-1.358 4.345 0 6.039a.83.83 0 0 0 1.17.131.833.833 0 0 0 .13-1.171c-.86-1.074-.86-2.884.002-3.959z"/>
    </g>
    <defs>
        <clipPath id="a">
            <path fill="#fff" d="M0 0h40v40H0z"/>
        </clipPath>
    </defs>
</svg>
