<svg xmlns="http://www.w3.org/2000/svg" width="10" height="10" fill="none" viewBox="0 0 10 10">
    <g clip-path="url(#a)">
        <path fill="#FCB7A0" d="M5 10.049a4.912 4.912 0 0 1-2.51-.67A4.938 4.938 0 0 1 .67 7.56 4.912 4.912 0 0 1 0 5.049c0-.905.223-1.742.669-2.51A4.938 4.938 0 0 1 2.49.718 4.912 4.912 0 0 1 5 .048c.905 0 1.742.224 2.51.67A4.938 4.938 0 0 1 9.33 2.539c.446.768.669 1.605.669 2.51 0 .905-.223 1.741-.669 2.51a4.938 4.938 0 0 1-1.821 1.82 4.912 4.912 0 0 1-2.51.67zm0-8.75c-.677 0-1.304.167-1.88.503a3.722 3.722 0 0 0-1.367 1.367 3.672 3.672 0 0 0-.503 1.88c0 .677.168 1.304.503 1.88A3.722 3.722 0 0 0 3.12 8.296 3.672 3.672 0 0 0 5 8.799c.677 0 1.304-.168 1.88-.503a3.722 3.722 0 0 0 1.367-1.367 3.672 3.672 0 0 0 .503-1.88c0-.677-.168-1.304-.503-1.88A3.722 3.722 0 0 0 6.88 1.802 3.672 3.672 0 0 0 5 1.299zm-.02 5.185a.609.609 0 0 1-.146.274.538.538 0 0 1-.479.156.549.549 0 0 1-.449-.156.537.537 0 0 1-.136-.264L2.656 5.381a.546.546 0 0 1-.166-.4c0-.157.056-.29.166-.4a.546.546 0 0 1 .4-.167c.157 0 .29.055.401.166l.908.908L6.533 3.33a.546.546 0 0 1 .4-.166c.157 0 .29.055.401.166.11.11.166.244.166.4 0 .157-.055.29-.166.4L4.98 6.485z"/>
    </g>
    <defs>
        <clipPath id="a">
            <path fill="#fff" d="M0 0h10v10H0z"/>
        </clipPath>
    </defs>
</svg>
