<svg xmlns="http://www.w3.org/2000/svg" width="16" height="16" fill="none" viewBox="0 0 16 16">
    <g clip-path="url(#a)">
        <path fill="#FDC2AA" d="M8 16.078a7.858 7.858 0 0 1-4.016-1.07 7.9 7.9 0 0 1-2.914-2.914A7.859 7.859 0 0 1 0 8.078C0 6.63.357 5.292 1.07 4.063a7.9 7.9 0 0 1 2.914-2.915A7.859 7.859 0 0 1 8 .078c1.448 0 2.787.357 4.016 1.07a7.9 7.9 0 0 1 2.914 2.915A7.86 7.86 0 0 1 16 8.078a7.86 7.86 0 0 1-1.07 4.016 7.9 7.9 0 0 1-2.914 2.914A7.858 7.858 0 0 1 8 16.078zm0-14a5.876 5.876 0 0 0-3.008.805A5.955 5.955 0 0 0 2.805 5.07 5.876 5.876 0 0 0 2 8.078c0 1.083.268 2.086.805 3.008a5.954 5.954 0 0 0 2.187 2.187A5.875 5.875 0 0 0 8 14.078a5.875 5.875 0 0 0 3.008-.805 5.954 5.954 0 0 0 2.187-2.187A5.875 5.875 0 0 0 14 8.078a5.875 5.875 0 0 0-.805-3.008 5.954 5.954 0 0 0-2.187-2.187A5.876 5.876 0 0 0 8 2.078zm-.031 8.297a.974.974 0 0 1-.235.438.86.86 0 0 1-.765.25c-.292.02-.532-.063-.719-.25a.86.86 0 0 1-.219-.422L4.25 8.609a.873.873 0 0 1-.266-.64c0-.25.089-.464.266-.64a.873.873 0 0 1 .64-.266c.25 0 .464.088.641.265l1.453 1.453 3.47-3.453a.873.873 0 0 1 .64-.266c.25 0 .463.089.64.266.178.177.266.39.266.64s-.088.464-.266.641L7.97 10.375z"/>
    </g>
    <defs>
        <clipPath id="a">
            <path fill="#fff" d="M0 0h16v16H0z"/>
        </clipPath>
    </defs>
</svg>
