<svg xmlns="http://www.w3.org/2000/svg" width="53" height="50" fill="none" viewBox="0 0 53 50">
    <g clip-path="url(#a)">
        <path fill="url(#b)" d="M0 25.049c0-4.533 1.167-8.724 3.502-12.573 2.335-3.85 5.499-6.892 9.492-9.125C16.985 1.117 21.328 0 26.02 0c3.519 0 6.88.661 10.084 1.984 3.203 1.323 5.966 3.102 8.29 5.335 2.323 2.234 4.173 4.896 5.549 7.987a23.691 23.691 0 0 1 2.064 9.743c0 3.383-.688 6.62-2.064 9.71-1.376 3.09-3.226 5.747-5.55 7.97-2.323 2.223-5.086 3.99-8.29 5.303C32.901 49.344 29.54 50 26.022 50c-3.542 0-6.92-.661-10.134-1.984-3.215-1.323-5.984-3.102-8.307-5.335-2.324-2.234-4.168-4.886-5.533-7.954A23.556 23.556 0 0 1 0 25.049zm5.719 0c0 5.27 1.996 9.846 5.989 13.728 3.992 3.838 8.764 5.758 14.313 5.758 3.654 0 7.038-.873 10.151-2.619 3.113-1.746 5.583-4.115 7.41-7.108 1.828-2.993 2.741-6.246 2.741-9.76 0-3.512-.913-6.771-2.74-9.775-1.828-3.003-4.298-5.378-7.41-7.124C33.058 6.403 29.674 5.53 26.02 5.53c-3.655 0-7.038.873-10.151 2.619-3.113 1.746-5.583 4.12-7.41 7.124-1.828 3.004-2.741 6.262-2.741 9.776zm9.136 4.636c.135-.488.428-.863.88-1.123l8.29-4.652V10.247c0-.52.186-.96.558-1.317.372-.358.829-.537 1.37-.537.542 0 .998.179 1.37.537.373.358.559.797.559 1.317V25.05c0 .412-.13.78-.39 1.106-.259.325-.58.542-.963.65l-8.866 4.945c-.27.174-.586.26-.947.26-.745 0-1.297-.314-1.658-.943a1.666 1.666 0 0 1-.203-1.383z"/>
    </g>
    <defs>
        <linearGradient id="b" x1="-7.281" x2="47.383" y1="-2.5" y2="49.143" gradientUnits="userSpaceOnUse">
            <stop stop-color="#FCB7A0"/>
            <stop offset="1" stop-color="#FFEBD1"/>
        </linearGradient>
        <clipPath id="a">
            <path fill="#fff" d="M0 0h52.008v50H0z"/>
        </clipPath>
    </defs>
</svg>
