<svg xmlns="http://www.w3.org/2000/svg" width="15" height="15" fill="none" viewBox="0 0 15 15">
    <path fill="#B0B0B0" d="M6.875 9.599h-.032a.593.593 0 0 1-.593-.593.625.625 0 0 0-1.25 0 1.843 1.843 0 0 0 1.843 1.843h.032v.625a.625.625 0 0 0 1.25 0v-.625a1.875 1.875 0 0 0 0-3.75v-1.25h.014c.337 0 .611.274.611.611a.625.625 0 0 0 1.25 0A1.861 1.861 0 0 0 8.139 4.6h-.014v-.625a.625.625 0 0 0-1.25 0v.625a1.875 1.875 0 0 0 0 3.75v1.25zm1.25 0v-1.25a.625.625 0 0 1 0 1.25zm-1.25-3.75v1.25a.625.625 0 0 1 0-1.25zm.625 8.125a6.25 6.25 0 1 1 0-12.5 6.25 6.25 0 0 1 0 12.5z"/>
</svg>
