<svg xmlns="http://www.w3.org/2000/svg" width="15" height="15" fill="none" viewBox="0 0 15 15">
    <path fill="#FCBBA4" d="M0 12.455c0 .715.56 1.295 1.25 1.295h12.5c.69 0 1.25-.58 1.25-1.295V7.708H0v4.747zm5-1.834a.32.32 0 0 1 .313-.323h3.541a.32.32 0 0 1 .313.323v1.08a.32.32 0 0 1-.313.323H5.313A.32.32 0 0 1 5 11.7v-1.079zm-3.333 0a.32.32 0 0 1 .312-.323h1.875a.32.32 0 0 1 .313.323v1.08a.32.32 0 0 1-.313.323H1.98a.32.32 0 0 1-.312-.324v-1.079zM15 2.961v1.295H0V2.961c0-.714.56-1.294 1.25-1.294h12.5c.69 0 1.25.58 1.25 1.294z"/>
</svg>
