<svg xmlns="http://www.w3.org/2000/svg" width="15" height="15" fill="none" viewBox="0 0 15 15">
    <g fill="#B0B0B0" clip-path="url(#a)">
        <path d="M9.569 5.435a.351.351 0 0 0-.351.35v6.64a.351.351 0 0 0 .702 0v-6.64a.351.351 0 0 0-.351-.35zM5.424 5.435a.351.351 0 0 0-.351.35v6.64a.351.351 0 0 0 .702 0v-6.64a.351.351 0 0 0-.351-.35z"/>
        <path d="M2.403 4.466v8.655c0 .511.187.992.515 1.336.326.346.78.542 1.255.543h6.647c.475 0 .929-.197 1.255-.543.328-.345.515-.825.515-1.336V4.466a1.342 1.342 0 0 0-.344-2.64h-1.799v-.438A1.38 1.38 0 0 0 9.057 0h-3.12a1.38 1.38 0 0 0-1.391 1.388v.439H2.747a1.342 1.342 0 0 0-.344 2.639zm8.417 9.831H4.173c-.6 0-1.068-.516-1.068-1.176V4.496h8.783v8.625c0 .66-.468 1.176-1.068 1.176zM5.248 1.387a.676.676 0 0 1 .689-.684h3.12a.677.677 0 0 1 .688.685v.439H5.248v-.44zm-2.5 1.142h9.498a.632.632 0 1 1 0 1.265H2.747a.632.632 0 1 1 0-1.265z"/>
        <path d="M7.496 5.435a.351.351 0 0 0-.35.35v6.64a.351.351 0 0 0 .702 0v-6.64a.351.351 0 0 0-.352-.35z"/>
    </g>
    <defs>
        <clipPath id="a">
            <path fill="#fff" d="M0 0h15v15H0z"/>
        </clipPath>
    </defs>
</svg>
