<svg xmlns="http://www.w3.org/2000/svg" width="10" height="10" fill="none" viewBox="0 0 10 10">
    <path fill="#989898" d="M6.899 5.258c-.388-.285-.838-.441-1.284-.568-.06-.017-.12-.03-.18-.046V1.946c.43.065.749.2.96.365.151.117.254.248.325.394.07.147.108.313.108.504a.442.442 0 0 0 .884 0c0-.309-.063-.61-.194-.884-.196-.412-.544-.75-.997-.97a3.374 3.374 0 0 0-1.087-.297V.669a.442.442 0 1 0-.883 0v.364c-.32.025-.608.088-.863.185-.5.189-.866.512-1.092.874a2.11 2.11 0 0 0-.323 1.117c-.001.377.09.718.261.995.149.243.35.431.571.576.388.253.83.389 1.27.507l.175.044v2.901c-.43-.047-.76-.185-.98-.373a1.15 1.15 0 0 1-.414-.91.442.442 0 1 0-.883 0 2.04 2.04 0 0 0 .726 1.585c.4.338.933.54 1.551.59v.384a.442.442 0 1 0 .884 0v-.4c.5-.05.967-.173 1.367-.42.273-.17.51-.407.669-.704.16-.297.242-.648.241-1.035 0-.403-.086-.76-.25-1.059a1.958 1.958 0 0 0-.562-.632zm-2.349-.84c-.43-.116-.8-.25-1.027-.424a.88.88 0 0 1-.267-.308 1.034 1.034 0 0 1-.1-.478c0-.271.1-.596.344-.844a1.37 1.37 0 0 1 .502-.32c.151-.058.334-.1.548-.122v2.495zm2.142 3.146a.961.961 0 0 1-.248.294 1.67 1.67 0 0 1-.645.295c-.113.028-.236.05-.365.066v-2.66c.27.078.518.164.718.272.223.118.385.252.494.418.109.167.18.375.182.7-.001.267-.054.462-.136.615z"/>
</svg>
