<svg width="21" height="17" viewBox="0 0 21 17" fill="none" xmlns="http://www.w3.org/2000/svg">
<path d="M9.81156 12.8469C9.81156 11.8479 9.54156 10.9839 8.98806 10.2819C8.15106 9.2289 6.51756 9.0939 5.57256 9.3099C5.18106 7.0824 7.07106 4.2474 9.51456 3.0324L7.63806 0.399902C3.95256 2.1549 0.321058 6.1779 0.942058 11.2674C1.33356 14.4804 3.19656 16.5999 5.82906 16.5999C6.97656 16.5999 7.93506 16.2624 8.69106 15.5874C9.44706 14.9124 9.81156 13.9944 9.81156 12.8469ZM20.6791 12.8469C20.6791 11.8479 20.4091 10.9839 19.8556 10.2819C19.0051 9.2289 17.3851 9.0939 16.4401 9.3099C16.0486 7.0824 17.9386 4.2474 20.3821 3.0324L18.5056 0.399902C14.8201 2.1549 11.2021 6.1779 11.8231 11.2674C12.2146 14.4804 14.0641 16.5999 16.6966 16.5999C17.8441 16.5999 18.8026 16.2624 19.5586 15.5874C20.3146 14.9124 20.6791 13.9944 20.6791 12.8469Z" fill="#E8E8E8" fill-opacity="0.7"/>
</svg>
