<svg xmlns="http://www.w3.org/2000/svg" width="10" height="10" fill="none" viewBox="0 0 10 10">
    <g clip-path="url(#a)">
        <path fill="#D0D0D0" d="M9.165.493a1.509 1.509 0 0 0-2.133 0L1.05 6.474a.335.335 0 0 0-.087.148l-.786 2.84a.335.335 0 0 0 .412.412l2.84-.787a.335.335 0 0 0 .148-.086l5.98-5.981a1.51 1.51 0 0 0 0-2.134L9.166.493zm-7.384 6.2l4.895-4.896 1.579 1.579L3.36 8.27 1.78 6.692zm-.315.632l1.26 1.261-1.744.484.484-1.745zm7.619-4.78l-.356.356L7.15 1.323l.356-.356a.838.838 0 0 1 1.185 0l.394.393a.84.84 0 0 1 0 1.186z"/>
    </g>
    <defs>
        <clipPath id="a">
            <path fill="#fff" d="M0 0h10v10H0z"/>
        </clipPath>
    </defs>
</svg>
