<svg xmlns="http://www.w3.org/2000/svg" width="10" height="10" fill="none" viewBox="0 0 10 10">
    <path stroke="#E7E7E7" d="M2.667 6.534l.058-.275-.205-.193-1.932-1.82C.532 4.186.483 4.06.505 3.856a.462.462 0 0 1 .227-.195h.016l.027-.003 2.536-.277.29-.032.115-.268.97-2.255a.554.554 0 0 0 .108-.172C4.878.536 4.98.5 5.037.5c.033 0 .05.01.057.015a.07.07 0 0 1 .017.023.26.26 0 0 1 .024.085l.06.431h.136l.919 2.137.115.268.29.031 2.535.278.027.003h.03c.1.027.18.1.233.235a.29.29 0 0 1-.054.302l.358.348-.358-.348-.044.045-1.015.933-.01.01-.01.01c-.337.346-.63.645-.81.784l-.25.192.066.307.537 2.537c.027.188-.046.285-.095.316l-.022.013-.02.016c-.021.016-.096.042-.206.022a.554.554 0 0 0-.156-.09L5.232 8.16l-.25-.144-.249.144-2.212 1.275-.076.044h-.052a.18.18 0 0 1-.06-.01.067.067 0 0 1-.014-.006l-.042-.043-.053-.033c-.049-.03-.121-.128-.094-.315l.537-2.537z"/>
</svg>
