<svg xmlns="http://www.w3.org/2000/svg" width="20" height="20" fill="none" viewBox="0 0 20 20">
    <path fill="#FCBBA4" d="M16.667 17.5c-1.075 0-2.15-.342-3.117-.95a.422.422 0 0 0-.442 0 5.732 5.732 0 0 1-6.225 0 .422.422 0 0 0-.441 0c-.959.608-2.034.95-3.109.95H2.5a.836.836 0 0 0-.833.833c0 .459.375.834.833.834h.833c1.15 0 2.284-.292 3.334-.825a7.293 7.293 0 0 0 6.666 0 7.251 7.251 0 0 0 3.334.825h.833a.836.836 0 0 0 .833-.834.836.836 0 0 0-.833-.833h-.833zM3.292 15.833h.041c1.184 0 2.25-.583 3.05-1.366a.424.424 0 0 1 .575 0c.792.783 1.859 1.366 3.042 1.366 1.183 0 2.25-.583 3.05-1.366a.407.407 0 0 1 .575 0c.792.783 1.858 1.366 3.042 1.366h.041l1.575-5.566a.877.877 0 0 0-.05-.65.83.83 0 0 0-.5-.417l-1.066-.35V5c0-.917-.75-1.667-1.667-1.667h-2.5V1.667a.836.836 0 0 0-.833-.834H8.333a.836.836 0 0 0-.833.834v1.666H5c-.917 0-1.667.75-1.667 1.667v3.85l-1.075.35a.84.84 0 0 0-.55 1.067l1.584 5.566zM5.833 5h8.334c.458 0 .833.375.833.833v2.475l-4.483-1.475a1.71 1.71 0 0 0-1.042 0L5 8.308V5.833C5 5.375 5.375 5 5.833 5z"/>
</svg>
