<svg xmlns="http://www.w3.org/2000/svg" width="10" height="10" fill="none" viewBox="0 0 10 10">
    <path fill="url(#a)" d="M.235 4.601l1.942 1.83-.54 2.55c-.053.332.055.665.325.83.108.112.27.167.431.167.108 0 .216 0 .324-.055 0 0 .054 0 .054-.056l2.212-1.275 2.212 1.275s.054 0 .054.056c.27.11.593.11.809-.056.27-.166.377-.499.324-.831l-.54-2.55c.216-.166.54-.5.863-.832l1.025-.942.054-.056a.79.79 0 0 0 .162-.831c-.108-.277-.324-.499-.647-.554h-.054l-2.536-.278L5.684.61s0-.056-.054-.056C5.576.166 5.306 0 5.037 0c-.27 0-.54.166-.702.443 0 0 0 .056-.054.056L3.256 2.883.721 3.16H.667a.936.936 0 0 0-.648.554c-.053.333 0 .665.216.887z"/>
    <defs>
        <linearGradient id="a" x1="5" x2="5" y2="10" gradientUnits="userSpaceOnUse">
            <stop offset=".292" stop-color="#FEDFC6"/>
            <stop offset="1" stop-color="#FCB69F"/>
        </linearGradient>
    </defs>
</svg>
