<svg xmlns="http://www.w3.org/2000/svg" width="15" height="15" fill="none" viewBox="0 0 15 15">
    <path fill="#FCBBA4" d="M10 6.875A1.867 1.867 0 0 0 11.869 5a1.872 1.872 0 0 0-3.744 0c0 1.037.838 1.875 1.875 1.875zm-5 0A1.867 1.867 0 0 0 6.869 5a1.872 1.872 0 0 0-3.744 0c0 1.037.837 1.875 1.875 1.875zm0 1.25c-1.456 0-4.375.731-4.375 2.188v1.562h8.75v-1.563c0-1.456-2.919-2.187-4.375-2.187zm5 0a7.3 7.3 0 0 0-.606.031c.725.525 1.231 1.231 1.231 2.156v1.563h3.75v-1.563c0-1.456-2.919-2.187-4.375-2.187z"/>
</svg>
