<svg xmlns="http://www.w3.org/2000/svg" width="15" height="15" fill="none" viewBox="0 0 15 15">
    <path fill="#B0B0B0" d="M6.87 2.956A1.479 1.479 0 1 0 6.869 0a1.479 1.479 0 0 0 0 2.957zM9.154 11.332a3.272 3.272 0 0 1-3.139 2.366 3.272 3.272 0 0 1-3.269-3.268c0-1.334.805-2.483 1.954-2.99V6.054a4.577 4.577 0 0 0-3.255 4.376c0 2.52 2.05 4.57 4.57 4.57a4.573 4.573 0 0 0 4.146-2.658l-.516-1.014-.491.004z"/>
    <path fill="#B0B0B0" d="M13.46 13.087l-1.98-3.892a.867.867 0 0 0-.773-.475H8.171v-.578h2.183a.64.64 0 0 0 .52-.278.635.635 0 0 0 .13-.373.65.65 0 0 0-.65-.651H8.17V4.878c0-.539-.4-1.302-1.301-1.302-.72 0-1.302.583-1.302 1.302v4.25c0 .733.594 1.328 1.328 1.328h3.279l1.739 3.418a.867.867 0 1 0 1.546-.787z"/>
</svg>
