<svg width="24" height="23" viewBox="0 0 24 23" fill="none" xmlns="http://www.w3.org/2000/svg">
<path stroke="white" stroke-width="3" d="M11.2536 3.81692L12.0161 4.66978L12.7785 3.81812C13.2784 3.25481 13.873 2.80734 14.5281 2.50139C15.1833 2.19545 15.8861 2.03707 16.5961 2.03533C17.3062 2.03359 18.0096 2.18854 18.6659 2.49127C19.3223 2.79401 19.9186 3.23857 20.4207 3.79943C20.9228 4.36029 21.3208 5.02641 21.5918 5.75955C21.8628 6.49268 22.0015 7.27839 22 8.07157C21.9984 8.86474 21.8566 9.64977 21.5827 10.3816C21.3089 11.1134 20.9083 11.7775 20.404 12.3359L12.7796 20.8538C12.6794 20.9658 12.5605 21.0546 12.4296 21.1152C12.2987 21.1758 12.1583 21.207 12.0166 21.207C11.8749 21.207 11.7346 21.1758 11.6037 21.1152C11.4727 21.0546 11.3538 20.9658 11.2536 20.8538L3.62819 12.3359C3.11704 11.7793 2.70991 11.1149 2.43043 10.3812C2.15095 9.64743 2.00468 8.85902 2.00011 8.06165C1.99554 7.26429 2.13275 6.47384 2.40379 5.73617C2.67483 4.9985 3.0743 4.32829 3.57903 3.76442C4.08376 3.20054 4.6837 2.75423 5.34405 2.45137C6.0044 2.1485 6.71201 1.99512 7.42584 2.00012C8.13967 2.00511 8.84551 2.16839 9.50241 2.48047C10.1593 2.79255 10.7542 3.24723 11.2526 3.81812L11.2536 3.81692Z" />
</svg>
