<svg xmlns="http://www.w3.org/2000/svg" width="40" height="40" fill="none" viewBox="0 0 40 40">
    <g clip-path="url(#a)">
        <path fill="#565656" d="M36.107 16.962V10.46c0-2.91-2.053-3.979-3.979-3.979H7.743c-1.925 0-3.978 1.027-3.978 3.979v6.502C1.84 17.176 0 18.46 0 21.412v5.048C0 27.315.684 28 1.54 28h.513v3.979c0 .855.685 1.54 1.54 1.54h1.455c.856 0 1.54-.685 1.54-1.54v-4.022h26.824v4.022c0 .855.684 1.54 1.54 1.54h1.454c.856 0 1.54-.685 1.54-1.54v-4.022h.514c.855 0 1.54-.684 1.54-1.54v-5.005c-.128-2.952-1.968-4.236-3.893-4.45zM5.219 10.46h.086c0-2.01 1.326-2.439 2.438-2.439h24.385c1.113 0 2.439.428 2.439 2.439v6.46h-1.155v-3.68c0-.855-.685-1.54-1.54-1.54H22.46c-.856 0-1.54.685-1.54 1.54v3.68h-1.797v-3.68c0-.855-.684-1.54-1.54-1.54H8.17c-.855 0-1.54.685-1.54 1.54v3.68H5.219v-6.46zm26.653 2.78v3.68H22.46v-3.68h9.412zm-14.204 0v3.68H8.257v-3.68h9.411zM5.005 31.98H3.551v-4.022h1.454v4.022zm31.316 0h-1.455v-4.022h1.455v4.022zm2.01-5.52H1.498v-2.267h36.835v2.268zm0-3.807H1.498v-1.24c0-2.567 1.883-2.952 2.952-2.952H35.38c1.112 0 2.952.385 2.952 2.952v1.24z"/>
    </g>
    <defs>
        <clipPath id="a">
            <path fill="#fff" d="M0 0h40v40H0z"/>
        </clipPath>
    </defs>
</svg>
