<svg xmlns="http://www.w3.org/2000/svg" width="30" height="30" fill="none" viewBox="0 0 30 30">
    <path fill="#FCBBA4" d="M17.871 15a2.871 2.871 0 1 1-5.742 0 2.871 2.871 0 0 1 5.742 0z"/>
    <path fill="#FCBBA4" d="M21.715 9.92a2.669 2.669 0 0 0-.645-.99 2.668 2.668 0 0 0-.99-.644c-.304-.118-.76-.258-1.6-.297-.908-.041-1.18-.05-3.48-.05s-2.572.009-3.48.05c-.84.039-1.296.179-1.6.297a2.665 2.665 0 0 0-.99.644 2.67 2.67 0 0 0-.645.99c-.118.304-.258.76-.296 1.6-.042.908-.05 1.18-.05 3.48s.008 2.573.05 3.481c.038.84.178 1.296.296 1.6.139.373.358.712.645.99.277.286.616.506.99.644.303.118.76.258 1.6.297.908.041 1.18.05 3.48.05s2.572-.009 3.48-.05c.84-.039 1.296-.179 1.6-.297a2.853 2.853 0 0 0 1.635-1.635c.117-.303.258-.76.296-1.599.041-.908.05-1.18.05-3.48s-.009-2.573-.05-3.481c-.038-.84-.178-1.296-.296-1.6zM15 19.423a4.423 4.423 0 1 1 0-8.846 4.423 4.423 0 0 1 0 8.846zm4.598-7.987a1.034 1.034 0 1 1 0-2.067 1.034 1.034 0 0 1 0 2.067z"/>
    <path fill="#FCBBA4" d="M15 0C6.717 0 0 6.717 0 15c0 8.283 6.717 15 15 15 8.283 0 15-6.717 15-15 0-8.283-6.717-15-15-15zm8.561 18.551c-.041.917-.187 1.543-.4 2.09a4.404 4.404 0 0 1-2.52 2.52c-.547.213-1.173.358-2.09.4-.918.042-1.212.052-3.55.052-2.34 0-2.633-.01-3.552-.052-.917-.042-1.543-.187-2.09-.4a4.22 4.22 0 0 1-1.526-.994 4.22 4.22 0 0 1-.994-1.525c-.213-.548-.358-1.174-.4-2.09-.042-.92-.052-1.213-.052-3.552 0-2.34.01-2.633.052-3.551.041-.917.187-1.543.4-2.09a4.22 4.22 0 0 1 .994-1.526c.43-.439.95-.778 1.525-.994.548-.213 1.174-.358 2.09-.4.92-.042 1.213-.052 3.552-.052 2.34 0 2.633.01 3.551.052.917.042 1.543.187 2.09.4a4.222 4.222 0 0 1 1.527.994c.438.43.777.95.993 1.525.213.548.359 1.174.4 2.09.042.92.052 1.213.052 3.552 0 2.34-.01 2.633-.052 3.551z"/>
</svg>
