<svg xmlns="http://www.w3.org/2000/svg" width="15" height="15" fill="none" viewBox="0 0 15 15">
    <path fill="#FCBBA4" d="M8.125 1.925V6.25h5A5 5 0 0 0 8.838 1.3a.628.628 0 0 0-.713.625zm3.95 8.006a4.967 4.967 0 0 0 1.05-3.056h-9.1L3.6 5.981a.62.62 0 0 0-.563-.356H1.876a.627.627 0 0 0-.625.625c0 .344.281.625.625.625h.763s1.18 2.544 1.325 2.763A2.19 2.19 0 0 0 2.874 12.1 2.175 2.175 0 0 0 4.5 13.694a2.182 2.182 0 0 0 2.656-1.819h1.3a2.186 2.186 0 0 0 4.282.244 2.178 2.178 0 0 0-.663-2.188zM5 12.5a.936.936 0 1 1 .938-.938A.936.936 0 0 1 5 12.5zm5.625 0a.936.936 0 0 1-.938-.938c0-.518.42-.937.938-.937.519 0 .938.419.938.938a.936.936 0 0 1-.938.937z"/>
</svg>
