<svg xmlns="http://www.w3.org/2000/svg" width="24" height="18" fill="none" viewBox="0 0 24 18">
    <path fill="#F4C4AF" d="M9.23 0C8.209 0 7.843.909 7.386 1.8l-.923 1.8H2.769C1.235 3.6 0 4.804 0 6.3v9C0 16.796 1.235 18 2.77 18h18.46c1.535 0 2.77-1.204 2.77-2.7v-9c0-1.496-1.235-2.7-2.77-2.7h-3.692l-.923-1.8C16.154.9 15.792 0 14.77 0H9.231zM2.77 5.4c.244 0 .479.095.652.264.173.168.27.397.27.636a.889.889 0 0 1-.27.636.935.935 0 0 1-.653.264.935.935 0 0 1-.652-.264.889.889 0 0 1-.27-.636c0-.239.096-.468.27-.636a.935.935 0 0 1 .652-.264zm9.23 0c1.469 0 2.878.569 3.916 1.582a5.333 5.333 0 0 1 1.622 3.818 5.333 5.333 0 0 1-1.622 3.818A5.611 5.611 0 0 1 12 16.2a5.611 5.611 0 0 1-3.916-1.582A5.332 5.332 0 0 1 6.462 10.8c0-1.432.583-2.806 1.622-3.818A5.611 5.611 0 0 1 12 5.4zm0 2.7c-.734 0-1.439.284-1.958.79a2.666 2.666 0 0 0-.811 1.91c0 .716.292 1.403.81 1.91.52.505 1.225.79 1.959.79s1.439-.284 1.958-.79c.52-.507.811-1.194.811-1.91s-.292-1.403-.81-1.91A2.806 2.806 0 0 0 12 8.1z"/>
</svg>
