<svg xmlns="http://www.w3.org/2000/svg" width="40" height="40" fill="none" viewBox="0 0 40 40">
    <g fill="#565656" clip-path="url(#a)">
        <path d="M31.348 19.967v-.932l-4.992-3.66h-2.995V13.71l1.997-1.332V9.517l-2.663-.665v-1.73l1.331-.666V2.928l-1.996-.665V.998L20.033 0l-1.997.998v1.265l-1.996.665v3.528l1.33.666v1.73l-2.661.665v2.862l1.996 1.332v1.663H13.71L8.72 19.035v.266l-3.994-3.328v5.658l1.331 1.33v3.728c0 .599.267 1.198.8 1.597l1.863 1.398v.599c0 1.331.798 2.529 1.996 3.061l3.994 1.797v.666l-1.331 1.997V40h13.31v-2.196l-1.33-1.997v-.666l3.993-1.797c1.198-.532 1.93-1.663 1.997-2.995l1.863-1.397c.533-.4.799-.999.799-1.598v-3.727l1.331-1.33v-5.658l-3.993 3.328zm-5.99 8.719h-2.663v1.33h1.331c.4 0 .666.267.666.666 0 .4-.266.666-.666.666-.998 0-1.863-.533-2.262-1.398l-.666-1.264h-2.13l-.599 1.264c-.399.865-1.33 1.398-2.263 1.398-.399 0-.665-.266-.665-.666s.266-.665.665-.665h1.332v-1.331h-2.663a1.335 1.335 0 0 1-1.33-1.331v-.666h-3.329V21.23l2.463 1.465h5.457c.2 0 .4.132.533.266l.666 1.065-.932 1.397c-.533.799-.333 1.797.466 2.33.266.2.599.266.931.266h.6c.931 0 1.663-.732 1.663-1.664 0-.333-.066-.665-.266-.932l-.865-1.397.665-1.065c.134-.2.333-.266.533-.266h5.457l2.463-1.465v5.458h-3.328v.666c.067.732-.532 1.33-1.264 1.33zm-5.99-2.33c0-.067 0-.133.066-.2l.6-.931.598.931c.133.134.067.4-.066.466-.067.067-.133.067-.2.067h-.599c-.266 0-.4-.133-.4-.333zm.665-24.892l.666.333v.266h-1.331v-.266l.665-.333zM17.371 3.86l1.464-.466h2.463l1.397.466v1.797l-.798.4h-3.66l-.866-.4V3.86zm3.993 4.859h-2.662V7.388h2.662v1.33zm-5.324 2.995v-1.132l2.063-.532h3.86l2.063.532v1.132l-1.53.998H17.57l-1.531-.998zm5.99 3.66h-3.994v-1.33h3.994v1.33zm-7.92 1.332h11.847l4.06 2.995-2.862 1.663H22.03c-.666 0-1.265.333-1.664.866l-.333.598-.399-.598c-.4-.533-.998-.866-1.664-.866h-5.125l-2.795-1.663 4.06-2.995zM7.654 27.22c-.2-.133-.266-.332-.266-.532v-4.26L6.056 21.1v-2.33l2.663 2.196v7.055l-1.065-.799zM25.358 38.67h-10.65v-.466l1.332-1.997v-.865h1.33c1.133 0 1.998.865 1.998 1.997h1.33c0-1.132.866-1.997 1.997-1.997h1.331v.865l1.332 1.997v.466zm3.46-6.589l-4.259 1.93h-1.864a3.373 3.373 0 0 0-2.662 1.331c-.599-.865-1.597-1.33-2.662-1.33h-1.863l-4.26-1.931c-.732-.333-1.198-1.065-1.198-1.797V28.02h2.063a2.659 2.659 0 0 0 2.063 1.93c-.066.266-.133.466-.133.732 0 1.132.866 1.997 1.997 1.997 1.464 0 2.862-.799 3.46-2.13l.267-.532h.533l.266.532a3.837 3.837 0 0 0 3.46 2.13c1.132 0 1.997-.866 1.997-1.997 0-.266-.066-.466-.133-.732a2.66 2.66 0 0 0 2.064-1.93h2.063v2.263c0 .799-.466 1.53-1.198 1.797zm5.192-10.316l-1.331 1.331v4.26c0 .199-.067.399-.266.532l-1.065.799v-6.989l2.662-2.196v2.263z"/>
        <path d="M24.36 24.027c-.932 0-1.665.732-1.665 1.663 0 .932.733 1.664 1.664 1.664.932 0 1.664-.732 1.664-1.663 0-.932-.732-1.664-1.664-1.664zm0 1.996c-.2 0-.334-.133-.334-.332 0-.2.134-.333.333-.333.2 0 .333.133.333.332 0 .2-.133.333-.333.333zM15.707 24.027c-.932 0-1.664.732-1.664 1.663 0 .932.732 1.664 1.664 1.664.932 0 1.664-.732 1.664-1.663 0-.932-.732-1.664-1.664-1.664zm0 1.996c-.2 0-.333-.133-.333-.332 0-.2.133-.333.333-.333s.333.133.333.332c0 .2-.133.333-.333.333zM24.026 18.702h3.328v1.331h-3.328v-1.33zM20.699 18.702h1.996v1.331H20.7v-1.33zM17.37 18.702h1.998v1.331H17.37v-1.33zM12.712 18.702h3.328v1.331h-3.328v-1.33z"/>
    </g>
    <defs>
        <clipPath id="a">
            <path fill="#fff" d="M0 0h40v40H0z"/>
        </clipPath>
    </defs>
</svg>
