<svg xmlns="http://www.w3.org/2000/svg" width="35" height="35" fill="none" viewBox="0 0 35 35">
    <path fill="#FCBBA4" d="M17.5 0C7.835 0 0 7.835 0 17.5S7.835 35 17.5 35 35 27.165 35 17.5 27.165 0 17.5 0z"/>
    <path fill="#fff" d="M14.503 14h-.306a.56.56 0 0 0-.547.573v5.854a.56.56 0 0 0 .547.573h.306a.561.561 0 0 0 .547-.573v-5.854a.561.561 0 0 0-.547-.573zM21.419 14a.753.753 0 0 0-.529.215.721.721 0 0 0-.219.518v3.38s-2.987-3.817-3.032-3.867a.752.752 0 0 0-.587-.245.759.759 0 0 0-.719.762v5.504a.74.74 0 0 0 .748.733.753.753 0 0 0 .529-.215.721.721 0 0 0 .219-.518v-3.36s3.032 3.85 3.077 3.892c.132.123.31.2.506.201.415.003.755-.357.755-.764v-5.503a.74.74 0 0 0-.748-.733zM12.056 19.534H9.722v-4.801c0-.405-.348-.733-.778-.733a.8.8 0 0 0-.55.215.708.708 0 0 0-.227.518v5.534c0 .405.348.733.777.733h3.112c.43 0 .777-.328.777-.733a.713.713 0 0 0-.228-.519.797.797 0 0 0-.55-.215zM27.222 15.466c.43 0 .778-.329.778-.733 0-.405-.348-.733-.778-.733h-3.111c-.43 0-.778.328-.778.733v5.534c0 .405.349.733.778.733h3.111c.43 0 .778-.328.778-.733a.713.713 0 0 0-.228-.519.797.797 0 0 0-.55-.215H24.89v-1.3h2.333c.43 0 .778-.328.778-.733a.71.71 0 0 0-.228-.518.797.797 0 0 0-.55-.215H24.89v-1.301h2.333z"/>
</svg>
