<svg xmlns="http://www.w3.org/2000/svg" width="20" height="20" fill="none" viewBox="0 0 20 20">
    <path fill="#FEDEC4" d="M15 6.667h-.833v-.834A4.171 4.171 0 0 0 10 1.667a4.171 4.171 0 0 0-4.167 4.166v.834H5a1.667 1.667 0 0 0-1.667 1.666v8.334A1.667 1.667 0 0 0 5 18.333h10a1.667 1.667 0 0 0 1.667-1.666V8.333A1.667 1.667 0 0 0 15 6.667zm-7.5-.834c0-1.378 1.122-2.5 2.5-2.5s2.5 1.122 2.5 2.5v.834h-5v-.834zm3.333 7.27V15H9.167v-1.898a1.66 1.66 0 0 1-.346-2.614 1.667 1.667 0 0 1 2.846 1.179c0 .615-.338 1.146-.834 1.435z"/>
</svg>
