<svg xmlns="http://www.w3.org/2000/svg" width="40" height="40" fill="none" viewBox="0 0 40 40">
    <path fill="#fff" d="M34.57 24.032a2.31 2.31 0 0 0-2.304 2.325v2.558c-.235 1.382-1.43 2.665-3.419 3.696-2.348 1.216-5.492 1.892-8.837 1.892-3.346 0-6.505-.674-8.852-1.89-1.99-1.03-3.19-2.316-3.424-3.698v-2.558a2.305 2.305 0 1 0-4.609 0v12.28c0 .346.28.66.625.66h3.398c.346 0 .586-.314.586-.66v-7.036c.704.788 1.655 1.506 2.844 2.122 2.522 1.307 5.871 2.034 9.413 2.034 3.541 0 6.904-.727 9.427-2.034 1.189-.616 2.145-1.334 2.848-2.122v7.037c0 .346.24.659.586.659h3.398c.345 0 .625-.313.625-.659v-12.28a2.31 2.31 0 0 0-2.305-2.326zm-29.14 1.25a1.06 1.06 0 0 1 1.054 1.075v1.612H4.375v-1.612a1.06 1.06 0 0 1 1.055-1.075zM4.375 38.047v-8.828h2.11v8.828h-2.11zM34.57 25.283a1.06 1.06 0 0 1 1.055 1.074v1.612h-2.11v-1.612a1.06 1.06 0 0 1 1.055-1.075zm-1.054 12.764v-8.828h2.109v8.828h-2.11z"/>
    <path fill="#fff" d="M29.531 3.281a.625.625 0 0 0-.625-.625H11.172a.625.625 0 0 0-.625.625v21.016a.625.625 0 0 0 .625.625h17.734a.625.625 0 0 0 .625-.625V3.28zm-1.328 20.313H11.797V3.906h16.406v19.688z"/>
    <path fill="#fff" d="M31.406 1.328a.625.625 0 0 0-.625-.625H9.22a.625.625 0 0 0-.625.625v24.844a.625.625 0 0 0 .625.625H30.78a.625.625 0 0 0 .625-.625V1.328zm-21.562.625h20.312v23.594H9.844V1.953z"/>
    <path fill="#fff" d="M14.1 14.797c0 2.126 1.06 4.187 2.726 5.351l.005 1.338a.625.625 0 0 0 .625.623h5.122a.625.625 0 0 0 .625-.625v-1.325c1.63-1.023 2.667-3.093 2.667-5.37 0-2.21-1.073-4.23-2.823-5.365v-.908h.469a.625.625 0 0 0 .625-.625V6.25a.625.625 0 0 0-.625-.625h-7.11a.625.625 0 0 0-.625.625v1.64a.625.625 0 0 0 .625.626h.39v.925c-1.648 1.168-2.696 3.23-2.696 5.356zm9.898-2.531c.23.43.397.892.5 1.37l-.072.073c-.161.17-.174.17-.239.17-.064 0-.078 0-.239-.17-.198-.209-.53-.558-1.145-.558-.614 0-.946.35-1.145.558-.161.17-.175.17-.239.17s-.078 0-.239-.17c-.198-.209-.53-.558-1.145-.558-.614 0-.946.35-1.145.558-.161.17-.174.17-.239.17-.064 0-.077 0-.239-.17-.198-.209-.53-.558-1.145-.558-.614 0-.946.35-1.145.558-.16.17-.174.17-.238.17-.065 0-.078 0-.24-.17a3.594 3.594 0 0 0-.15-.15c.106-.45.266-.884.478-1.293h8.026zm-8.642 2.763c.167.068.347.101.528.1.614 0 .946-.35 1.145-.559.16-.17.174-.17.238-.17.065 0 .078 0 .24.17.198.21.53.56 1.144.56.615 0 .947-.35 1.145-.56.162-.17.175-.17.24-.17.063 0 .077 0 .238.17.199.21.53.56 1.145.56s.947-.35 1.145-.56c.162-.17.175-.17.24-.17.063 0 .077 0 .238.17.199.21.531.56 1.145.56.144 0 .288-.021.426-.064-.016.346-.061.69-.136 1.028H15.51a5.407 5.407 0 0 1-.154-1.065zm7.095 4.125a.625.625 0 0 0-.498.612v1.093H18.08l-.004-1.05a.625.625 0 0 0-.3-.532 4.99 4.99 0 0 1-1.786-1.933h8.054c-.38.78-.93 1.42-1.592 1.81zm-5.42-12.279h5.86v.39h-.47a.625.625 0 0 0-.624.626v.234h-3.75v-.234a.625.625 0 0 0-.625-.625h-.39v-.391zm.719 3.433a.626.626 0 0 0 .297-.532v-.401h3.75v.401a.625.625 0 0 0 .319.545c.34.191.655.425.937.695h-6.182c.263-.271.558-.509.879-.708z"/>
</svg>
