<svg xmlns="http://www.w3.org/2000/svg" width="105" height="83" fill="none" viewBox="0 0 105 83">
    <path fill="#4F4F4F" d="M86.535 68.465L69.85 51.78A24.776 24.776 0 0 0 74 38c0-13.785-11.215-25-25-25S24 24.215 24 38s11.215 25 25 25c4.944 0 9.686-1.432 13.78-4.15l4.612 4.612.002.002 12.07 12.071A4.967 4.967 0 0 0 83 77c1.335 0 2.59-.52 3.535-1.465A4.965 4.965 0 0 0 88 72c0-1.336-.52-2.591-1.465-3.535zm-24.343-12.25v.001A22.307 22.307 0 0 1 49 60.5c-12.407 0-22.5-10.093-22.5-22.5S36.593 15.5 49 15.5 71.5 25.593 71.5 38c0 4.772-1.481 9.333-4.284 13.192a22.61 22.61 0 0 1-5.024 5.024zm2.622 1.134a25.087 25.087 0 0 0 3.535-3.534l3.546 3.546a30.34 30.34 0 0 1-3.534 3.535l-3.547-3.547zm19.953 16.418c-.472.473-1.1.733-1.767.733-.667 0-1.295-.26-1.767-.733l-11.1-11.099a32.858 32.858 0 0 0 3.535-3.535l11.1 11.1c.472.472.732 1.1.732 1.767 0 .668-.26 1.295-.733 1.767z"/>
    <path fill="#4F4F4F" d="M49 18c-11.028 0-20 8.972-20 20s8.972 20 20 20 20-8.972 20-20-8.972-20-20-20zm0 37.5c-9.65 0-17.5-7.85-17.5-17.5S39.35 20.5 49 20.5 66.5 28.35 66.5 38 58.65 55.5 49 55.5z"/>
    <path fill="#4F4F4F" d="M40.312 32.29c-.754 0-1.365.527-1.365 1.178v1.179c0 .65.611 1.178 1.365 1.178s1.365-.528 1.365-1.178v-1.179c0-.65-.611-1.179-1.365-1.179zM56.688 32.29c-.754 0-1.365.527-1.365 1.178v1.179c0 .65.611 1.178 1.365 1.178s1.365-.528 1.365-1.178v-1.179c0-.65-.611-1.179-1.365-1.179zM48.5 37.004c-5.2 0-6.96 5.893-4.094 5.893.754 0 1.365-.528 1.365-1.179 0-1.302 1.222-2.357 2.729-2.357 1.507 0 2.73 1.055 2.73 2.357 0 .651.61 1.179 1.364 1.179 2.866 0 1.105-5.893-4.094-5.893z"/>
    <path fill="#F2B099" d="M87.056 26.44c-.83 0-1.5.691-1.5 1.52 0 .81.651 1.52 1.5 1.52s1.52-.71 1.52-1.52c0-.829-.69-1.52-1.52-1.52zM87.313 14.93c-2.666 0-3.89 1.58-3.89 2.645 0 .77.652 1.126 1.185 1.126 1.066 0 .632-1.52 2.645-1.52.988 0 1.777.434 1.777 1.342 0 1.066-1.105 1.678-1.757 2.231-.572.494-1.323 1.303-1.323 3.001 0 1.027.277 1.323 1.086 1.323.968 0 1.165-.434 1.165-.81 0-1.026.02-1.619 1.106-2.468.533-.414 2.211-1.757 2.211-3.613 0-1.855-1.678-3.257-4.205-3.257zM93.663 53.748a1.15 1.15 0 0 0-1.138 1.153c0 .614.494 1.153 1.138 1.153.644 0 1.153-.539 1.153-1.153 0-.629-.524-1.153-1.153-1.153zM93.858 45.016c-2.022 0-2.95 1.198-2.95 2.007 0 .584.493.853.898.853.809 0 .48-1.153 2.007-1.153.749 0 1.348.33 1.348 1.019 0 .809-.839 1.273-1.333 1.692-.434.375-1.004.989-1.004 2.277 0 .779.21 1.003.824 1.003.734 0 .884-.33.884-.614 0-.779.015-1.228.839-1.872.404-.315 1.677-1.333 1.677-2.74 0-1.409-1.273-2.472-3.19-2.472zM7.755 36.726a.837.837 0 0 0-.828.838c0 .447.36.84.828.84a.846.846 0 0 0 .839-.84.846.846 0 0 0-.839-.838zM7.897 30.375c-1.47 0-2.146.871-2.146 1.46 0 .425.36.62.653.62.588 0 .349-.838 1.46-.838.545 0 .98.24.98.74 0 .589-.61.926-.97 1.231-.315.273-.729.72-.729 1.656 0 .566.152.73.6.73.533 0 .642-.24.642-.447 0-.566.01-.893.61-1.361.294-.229 1.22-.97 1.22-1.994s-.926-1.797-2.32-1.797zM15.602 17.43a1.36 1.36 0 0 0-1.345 1.362c0 .726.584 1.363 1.345 1.363.76 0 1.363-.637 1.363-1.363 0-.743-.62-1.363-1.363-1.363zM15.832 7.11c-2.39 0-3.487 1.416-3.487 2.371 0 .69.584 1.01 1.062 1.01.956 0 .566-1.364 2.372-1.364.885 0 1.593.39 1.593 1.204 0 .956-.991 1.505-1.575 2-.514.443-1.186 1.169-1.186 2.69 0 .921.247 1.187.973 1.187.867 0 1.044-.39 1.044-.726 0-.92.018-1.451.992-2.212.478-.372 1.982-1.576 1.982-3.24 0-1.664-1.504-2.92-3.77-2.92zM22.663 75.748a1.15 1.15 0 0 0-1.138 1.153c0 .614.494 1.153 1.138 1.153.644 0 1.153-.539 1.153-1.153 0-.629-.524-1.153-1.153-1.153zM22.858 67.016c-2.022 0-2.95 1.198-2.95 2.007 0 .584.493.853.898.853.809 0 .48-1.153 2.007-1.153.749 0 1.348.33 1.348 1.019 0 .808-.839 1.273-1.333 1.692-.434.375-1.004.989-1.004 2.277 0 .779.21 1.003.824 1.003.734 0 .884-.33.884-.614 0-.779.015-1.228.839-1.872.404-.314 1.677-1.333 1.677-2.74 0-1.409-1.273-2.472-3.19-2.472z"/>
</svg>
