<svg xmlns="http://www.w3.org/2000/svg" width="16" height="16" fill="none" viewBox="0 0 16 16">
    <path fill="#4F4F4F" d="M13.718 3.4l-6.35 6.349c.188.27.349.56.477.87l1.584 3.813L13.718 3.4zM6.25 8.632l6.35-6.35L1.567 6.57l3.815 1.585c.306.127.597.287.869.477zm9.637-6.521l-5 12.86c-.315.813-1.225 1.23-2.03.933a1.52 1.52 0 0 1-.878-.844l-1.584-3.814a3.038 3.038 0 0 0-1.642-1.642L.938 8.02a1.539 1.539 0 0 1-.806-2.046 1.617 1.617 0 0 1 .896-.862l12.862-5a1.536 1.536 0 0 1 1.999 1.998l-.001.001z"/>
</svg>
