<svg xmlns="http://www.w3.org/2000/svg" width="40" height="40" fill="none" viewBox="0 0 40 40">
    <g fill="#fff" clip-path="url(#a)">
        <path d="M39.333 31.333a.667.667 0 0 0 0-1.333h-.666a.667.667 0 1 0-1.334 0H26.667a.667.667 0 0 0-1.334 0h-.666a.667.667 0 1 0 0 1.333h.666v2h-.666a.667.667 0 1 0 0 1.333h.666v.667h-.666a.667.667 0 1 0 0 1.333h.666v2H14v-5.515a6.592 6.592 0 0 0 3.231.849 6.869 6.869 0 0 0 6.77-6.949 6.942 6.942 0 0 0-3.797-6.242 6.085 6.085 0 0 0 1.18-3.63 6.019 6.019 0 0 0-4.818-5.946A5.156 5.156 0 0 0 12 3.95c-.02 0-.039.003-.058.003a4.665 4.665 0 0 0-9.236.107 3.334 3.334 0 0 0 .628 6.608H7.22c.06.192.131.38.213.563a6.022 6.022 0 0 0-4.817 5.95 6.086 6.086 0 0 0 1.18 3.629A6.942 6.942 0 0 0 0 27.05 6.868 6.868 0 0 0 6.77 34a6.59 6.59 0 0 0 3.23-.85v5.516H.667a.667.667 0 1 0 0 1.334h38.666a.667.667 0 0 0 0-1.334h-.666v-2h.666a.667.667 0 1 0 0-1.333h-.666v-.667h.666a.667.667 0 1 0 0-1.333h-.666v-2h.666zM6.975 9.103c0 .077.008.154.012.23H3.334a2 2 0 1 1 0-4A.666.666 0 0 0 4 4.668a3.327 3.327 0 0 1 6.615-.514 5.143 5.143 0 0 0-3.64 4.95zm5.692 29.563h-1.333v-6.495c.239-.223.461-.462.666-.716.205.254.428.493.667.716v6.495zm.08-8.471l4.391-4.39a.667.667 0 0 0-.942-.943l-3.529 3.529v-6.782l3.138-3.138a.667.667 0 0 0-.943-.942l-2.195 2.195v-3.057a.667.667 0 1 0-1.333 0v3.057l-2.196-2.195a.667.667 0 0 0-.942.942l3.138 3.138v6.781l-3.529-3.528a.667.667 0 0 0-.943.943l4.39 4.39a5.338 5.338 0 0 1-4.483 2.471 5.534 5.534 0 0 1-5.435-5.615 5.58 5.58 0 0 1 3.779-5.347.667.667 0 0 0 .258-1.108A4.75 4.75 0 0 1 3.95 17.18a4.643 4.643 0 0 1 4.511-4.72.689.689 0 0 0 .669-.363.665.665 0 0 0-.058-.695 3.864 3.864 0 0 1-.763-2.299A3.763 3.763 0 0 1 12 5.283a3.762 3.762 0 0 1 3.693 3.82 3.864 3.864 0 0 1-.764 2.299.662.662 0 0 0-.047.694.681.681 0 0 0 .605.366 4.648 4.648 0 0 1 4.565 4.718 4.751 4.751 0 0 1-1.423 3.416.666.666 0 0 0 .258 1.108 5.641 5.641 0 0 1-1.656 10.962 5.337 5.337 0 0 1-4.483-2.471zm24.586 8.471H26.667v-2h10.666v2zm0-3.333H26.667v-.667h10.666v.667zm0-2H26.667v-2h10.666v2zM28.667 16.667h8a3.334 3.334 0 0 0 .627-6.608 4.667 4.667 0 0 0-9.254 0 3.334 3.334 0 0 0 .627 6.608zm0-5.334a.667.667 0 0 0 .666-.666 3.333 3.333 0 0 1 6.667 0 .666.666 0 0 0 .667.667 2 2 0 0 1 0 4h-8a2 2 0 0 1 0-4z"/>
    </g>
    <defs>
        <clipPath id="a">
            <path fill="#fff" d="M0 0h40v40H0z"/>
        </clipPath>
    </defs>
</svg>
