<svg xmlns="http://www.w3.org/2000/svg" width="15" height="15" fill="none" viewBox="0 0 15 15">
    <path fill="#B0B0B0" d="M13.393 0H1.607C.72 0 0 .72 0 1.607v11.786C0 14.28.72 15 1.607 15h11.786C14.28 15 15 14.28 15 13.393V1.607C15 .72 14.28 0 13.393 0zM8.036 9.643H6.429v1.607a.537.537 0 0 1-.536.536H4.82a.537.537 0 0 1-.535-.536v-7.5c0-.295.24-.536.535-.536h3.215A3.22 3.22 0 0 1 11.25 6.43a3.22 3.22 0 0 1-3.214 3.214zm0-4.286H6.429V7.5h1.607c.589 0 1.071-.482 1.071-1.071 0-.59-.482-1.072-1.071-1.072z"/>
</svg>
