<svg xmlns="http://www.w3.org/2000/svg" width="15" height="15" fill="none" viewBox="0 0 15 15">
    <g clip-path="url(#a)">
        <path fill="#FCBBA4" d="M14.531 2.812h-1.875l-.21-.419a.938.938 0 0 0-.838-.518h-1.57l-.8-.8a.469.469 0 0 0-.8.332v4.39l3.75 1.34V6.093h.937c1.036 0 1.875-.84 1.875-1.875V3.28a.469.469 0 0 0-.469-.469zM11.25 4.22a.469.469 0 1 1 0-.938.469.469 0 0 1 0 .938zM2.812 6.562a.939.939 0 0 1-.937-.937.938.938 0 0 0-1.875 0c0 1.22.786 2.251 1.875 2.64v6.266c0 .26.21.469.469.469h1.875c.259 0 .468-.21.468-.469V11.25h4.688v3.281c0 .26.21.469.469.469h1.875c.259 0 .469-.21.469-.469v-6.4L7.793 6.562H2.813z"/>
    </g>
    <defs>
        <clipPath id="a">
            <path fill="#fff" d="M0 0h15v15H0z"/>
        </clipPath>
    </defs>
</svg>
