<svg xmlns="http://www.w3.org/2000/svg" width="15" height="15" fill="none" viewBox="0 0 15 15">
    <g clip-path="url(#a)">
        <path fill="#B0B0B0" d="M12.803 2.657A7.451 7.451 0 0 0 7.5.461a7.45 7.45 0 0 0-5.303 2.196A7.45 7.45 0 0 0 0 7.961a7.495 7.495 0 0 0 3.74 6.49.648.648 0 0 0 .889-.236.65.65 0 0 0-.236-.889A6.224 6.224 0 0 1 1.3 7.961c0-3.419 2.78-6.2 6.199-6.2 3.418 0 6.2 2.781 6.2 6.2 0 1.445-.392 2.65-1.132 3.485-.603.68-1.412 1.07-2.22 1.07-.81 0-1.726-.425-2.064-1.554a2.875 2.875 0 0 0 2.29-2.81V6.256a.163.163 0 0 0-.163-.162h-.87V4.319a.65.65 0 1 0-1.301 0v1.775H6.76V4.319a.65.65 0 0 0-1.3 0v1.775h-.87a.163.163 0 0 0-.163.162v1.896A2.874 2.874 0 0 0 6.954 11c.153.717.471 1.334.943 1.816.633.645 1.504 1 2.451 1 1.18 0 2.344-.55 3.193-1.508.666-.751 1.459-2.115 1.459-4.348a7.45 7.45 0 0 0-2.197-5.304z"/>
    </g>
    <defs>
        <clipPath id="a">
            <path fill="#fff" d="M0 0h15v15H0z"/>
        </clipPath>
    </defs>
</svg>
