<svg width="55" height="55" viewBox="0 0 55 55" fill="none" xmlns="http://www.w3.org/2000/svg">
<path d="M27.5 0.416687C12.55 0.416687 0.416656 12.55 0.416656 27.5C0.416656 42.45 12.55 54.5834 27.5 54.5834C42.45 54.5834 54.5833 42.45 54.5833 27.5C54.5833 12.55 42.45 0.416687 27.5 0.416687ZM38.3333 30.2084H30.2083V38.3334C30.2083 39.8229 28.9896 41.0417 27.5 41.0417C26.0104 41.0417 24.7917 39.8229 24.7917 38.3334V30.2084H16.6667C15.1771 30.2084 13.9583 28.9896 13.9583 27.5C13.9583 26.0104 15.1771 24.7917 16.6667 24.7917H24.7917V16.6667C24.7917 15.1771 26.0104 13.9584 27.5 13.9584C28.9896 13.9584 30.2083 15.1771 30.2083 16.6667V24.7917H38.3333C39.8229 24.7917 41.0417 26.0104 41.0417 27.5C41.0417 28.9896 39.8229 30.2084 38.3333 30.2084Z" fill="#FCB69F"/>
</svg>
