<svg xmlns="http://www.w3.org/2000/svg" width="19" height="19" fill="none" viewBox="0 0 19 19">
    <path fill="#fff" stroke="url(#a)" stroke-width="2.5" d="M3.699 16.017c.078.463.316.91.759 1.23a2.114 2.114 0 0 0 1.41.502c.13.001.47.004.842-.144a1.342 1.342 0 0 0 .513-.309l2.273-1.312 2.601 1.385.055.03.057.023.01.004c.176.072.5.206.85.26.372.057.915.047 1.417-.311.885-.579 1.109-1.601.98-2.398l-.005-.03-.006-.028-.607-2.873c.23-.224.467-.468.68-.686l.03-.031 1.41-1.299.025-.023.025-.025.075-.078a2.36 2.36 0 0 0 .495-2.49c-.275-.71-.887-1.39-1.86-1.557l-.105-.018H15.509l-2.759-.303-1.125-2.62a2.687 2.687 0 0 0-.661-1.05c-.294-.286-.783-.616-1.417-.616-.739 0-1.217.457-1.44.713a4.829 4.829 0 0 0-.516.763l-.018.031-.016.033-1.313 2.585-2.811.308h-.135l-.125.026a2.56 2.56 0 0 0-1.82 1.549l-.047.123-.021.13c-.067.413-.048.843.149 1.27.165.359.42.623.564.77l2.214 2.377-.483 3.05v.001c-.036.225-.1.627-.03 1.038z"/>
    <defs>
        <linearGradient id="a" x1="6.133" x2="13.755" y1="7.802" y2="16.41" gradientUnits="userSpaceOnUse">
            <stop stop-color="#F3BDA7"/>
            <stop offset="1" stop-color="#FCEBD4"/>
        </linearGradient>
    </defs>
</svg>
