<svg xmlns="http://www.w3.org/2000/svg" width="11" height="10" fill="none" viewBox="0 0 11 10">
    <path fill="#B0B0B0" d="M2.23 2.818l.866-.26a.555.555 0 0 1 .578.17.528.528 0 0 1 .06.588.534.534 0 0 1-.32.258l-2.077.622a.554.554 0 0 1-.578-.17.527.527 0 0 1-.1-.183L.024 1.811a.52.52 0 0 1 .04-.405.54.54 0 0 1 .32-.258.554.554 0 0 1 .578.17c.045.054.08.116.1.182l.24.765C2.607.297 5.201-.549 7.503.373a5.096 5.096 0 0 1 1.812 1.231 4.956 4.956 0 0 1 1.109 1.865.52.52 0 0 1-.162.574.546.546 0 0 1-.4.125.552.552 0 0 1-.372-.192.527.527 0 0 1-.1-.184 3.914 3.914 0 0 0-1.236-1.808 4.05 4.05 0 0 0-2.03-.885 4.089 4.089 0 0 0-2.2.31A3.985 3.985 0 0 0 2.23 2.818zm6.693 4.35l-.964.236a.555.555 0 0 1-.578-.194.526.526 0 0 1-.028-.597.536.536 0 0 1 .343-.24l1.978-.482a.552.552 0 0 1 .331-.042c.108.014.21.059.291.13a.529.529 0 0 1 .165.268l.526 2.06a.52.52 0 0 1-.068.395.553.553 0 0 1-.736.18.533.533 0 0 1-.25-.318l-.179-.702a5.068 5.068 0 0 1-2.072 1.69 5.196 5.196 0 0 1-5.174-.554A4.996 4.996 0 0 1 .86 6.908l-.141-.336a.52.52 0 0 1 .001-.407.537.537 0 0 1 .295-.286.554.554 0 0 1 .416.002.537.537 0 0 1 .293.288l.14.336c.277.66.733 1.235 1.32 1.66a4.086 4.086 0 0 0 4.122.388 3.981 3.981 0 0 0 1.617-1.384z"/>
</svg>
