<svg xmlns="http://www.w3.org/2000/svg" width="47" height="47" fill="none" viewBox="0 0 47 47">
    <g filter="url(#a)">
        <rect width="39" height="39" x="4" y="2" fill="#fff" rx="19.5"/>
        <g fill="#FCB69F" clip-path="url(#b)">
            <path d="M33.823 19.087l-1.615-.274a9.116 9.116 0 0 0-.648-1.567l.951-1.33a1.417 1.417 0 0 0-.154-1.831l-1.431-1.432A1.41 1.41 0 0 0 29.1 12.5l-1.336.952a9.015 9.015 0 0 0-1.624-.668l-.269-1.595A1.42 1.42 0 0 0 24.468 10h-2.023c-.696 0-1.287.5-1.403 1.187l-.278 1.633a8.9 8.9 0 0 0-1.562.659l-1.321-.952a1.41 1.41 0 0 0-.826-.264c-.38 0-.74.149-1.005.418l-1.436 1.432a1.422 1.422 0 0 0-.154 1.83l.96 1.35a8.91 8.91 0 0 0-.638 1.572l-1.595.269A1.42 1.42 0 0 0 12 20.538v2.022c0 .697.5 1.288 1.187 1.403l1.633.279c.168.538.39 1.062.659 1.561l-.947 1.317a1.417 1.417 0 0 0 .154 1.83l1.432 1.432a1.41 1.41 0 0 0 1.825.154l1.35-.96c.486.254.995.46 1.519.624l.269 1.614a1.42 1.42 0 0 0 1.403 1.187h2.027c.697 0 1.288-.5 1.403-1.187l.274-1.614a9.11 9.11 0 0 0 1.566-.649l1.331.951c.24.173.529.265.827.265.38 0 .735-.15 1.004-.418l1.432-1.432c.49-.49.557-1.264.153-1.83l-.95-1.336a9.043 9.043 0 0 0 .648-1.567l1.614-.269A1.42 1.42 0 0 0 35 22.512V20.49a1.402 1.402 0 0 0-1.177-1.402zm-.11 3.425a.124.124 0 0 1-.107.125l-2.017.337a.645.645 0 0 0-.52.475 7.69 7.69 0 0 1-.835 2.013.65.65 0 0 0 .028.707l1.187 1.672a.13.13 0 0 1-.014.163l-1.432 1.432a.122.122 0 0 1-.091.038.118.118 0 0 1-.072-.024l-1.668-1.187a.65.65 0 0 0-.706-.028 7.688 7.688 0 0 1-2.013.836.638.638 0 0 0-.476.518l-.34 2.019a.124.124 0 0 1-.126.105H22.49a.125.125 0 0 1-.125-.105l-.337-2.018a.645.645 0 0 0-.475-.52 7.983 7.983 0 0 1-1.97-.807.666.666 0 0 0-.327-.086.632.632 0 0 0-.375.12L17.2 29.493a.142.142 0 0 1-.072.024.128.128 0 0 1-.092-.038l-1.431-1.432a.13.13 0 0 1-.015-.163l1.182-1.658a.658.658 0 0 0 .029-.71 7.622 7.622 0 0 1-.846-2.01.658.658 0 0 0-.519-.475l-2.032-.346a.125.125 0 0 1-.106-.125v-2.022c0-.063.043-.116.106-.125l2.003-.337a.65.65 0 0 0 .524-.48 7.683 7.683 0 0 1 .822-2.018.642.642 0 0 0-.034-.702l-1.196-1.681a.131.131 0 0 1 .014-.164l1.432-1.431a.122.122 0 0 1 .091-.039c.03 0 .053.01.072.024l1.658 1.182c.211.15.49.159.711.029a7.621 7.621 0 0 1 2.008-.846.658.658 0 0 0 .476-.518l.346-2.033a.125.125 0 0 1 .125-.106h2.023c.062 0 .115.044.125.106l.336 2.004a.65.65 0 0 0 .48.523 7.798 7.798 0 0 1 2.062.846.65.65 0 0 0 .706-.029l1.657-1.191a.143.143 0 0 1 .072-.024c.02 0 .058.004.092.038l1.432 1.432a.13.13 0 0 1 .014.163l-1.187 1.667a.649.649 0 0 0-.029.707c.375.63.654 1.306.837 2.013.062.25.268.437.518.476l2.018.34c.063.01.106.063.106.125v2.023h-.005z"/>
            <path d="M23.502 16.534a4.966 4.966 0 0 0-4.963 4.964 4.966 4.966 0 0 0 4.963 4.963 4.966 4.966 0 0 0 4.963-4.963 4.966 4.966 0 0 0-4.963-4.964zm0 8.63a3.668 3.668 0 0 1-3.666-3.666 3.668 3.668 0 0 1 3.666-3.666 3.668 3.668 0 0 1 3.666 3.666 3.668 3.668 0 0 1-3.666 3.665z"/>
        </g>
    </g>
    <defs>
        <filter id="a" width="47" height="47" x="0" y="0" color-interpolation-filters="sRGB" filterUnits="userSpaceOnUse">
            <feFlood flood-opacity="0" result="BackgroundImageFix"/>
            <feColorMatrix in="SourceAlpha" values="0 0 0 0 0 0 0 0 0 0 0 0 0 0 0 0 0 0 127 0"/>
            <feOffset dy="2"/>
            <feGaussianBlur stdDeviation="2"/>
            <feColorMatrix values="0 0 0 0 0 0 0 0 0 0 0 0 0 0 0 0 0 0 0.18 0"/>
            <feBlend in2="BackgroundImageFix" result="effect1_dropShadow"/>
            <feBlend in="SourceGraphic" in2="effect1_dropShadow" result="shape"/>
        </filter>
        <clipPath id="b">
            <path fill="#fff" d="M0 0h23v23H0z" transform="translate(12 10)"/>
        </clipPath>
    </defs>
</svg>
