<svg xmlns="http://www.w3.org/2000/svg" width="20" height="20" fill="none" viewBox="0 0 20 20">
    <path fill="#4F4F4F" d="M16.358 3.042a.833.833 0 0 0-.7-.167 6.666 6.666 0 0 1-5.183-1.058.833.833 0 0 0-.95 0 6.667 6.667 0 0 1-5.183 1.058.833.833 0 0 0-1.009.817V9.9a7.5 7.5 0 0 0 3.142 6.108l3.042 2.167a.833.833 0 0 0 .966 0l3.042-2.167A7.498 7.498 0 0 0 16.667 9.9V3.692a.835.835 0 0 0-.309-.65zM15 9.9a5.833 5.833 0 0 1-2.442 4.75L10 16.475 7.442 14.65A5.833 5.833 0 0 1 5 9.9V4.65a8.333 8.333 0 0 0 5-1.158 8.333 8.333 0 0 0 5 1.158V9.9zm-3.717-1.908l-2.241 2.25-.742-.75a.837.837 0 1 0-1.183 1.183l1.333 1.333a.833.833 0 0 0 1.183 0L12.5 9.167a.837.837 0 0 0-1.183-1.184l-.034.009z"/>
</svg>
