<svg xmlns="http://www.w3.org/2000/svg" width="15" height="15" fill="none" viewBox="0 0 15 15">
    <path fill="#FCBBA4" d="M9.688 10h-7.5a.936.936 0 1 0 0 1.875h7.5a.936.936 0 0 0 .937-.938.936.936 0 0 0-.938-.937zm2.093-5.169c.388-.381.625-.906.625-1.487 0-.944-.625-1.744-1.487-2.006a.474.474 0 0 0-.607.45c0 .206.132.387.325.443a1.16 1.16 0 1 1 .038 2.212c-.206.07-.362.245-.362.463V5c0 .231.168.431.4.469 1.206.194 2.1 1.25 2.1 2.512v.925c0 .257.212.469.468.469a.472.472 0 0 0 .469-.469v-.931c0-1.387-.8-2.587-1.969-3.144zM10.02 6.375h-.813c-.637 0-1.212-.456-1.293-1.094-.075-.593.287-1.062.812-1.206a.463.463 0 0 0 .338-.45c0-.306-.288-.537-.582-.45a2.094 2.094 0 0 0-1.512 2.05c.018 1.15 1.012 2.056 2.162 2.056h.888c.656 0 1.231.463 1.231 1.282v.343c0 .257.206.469.469.469h.006a.468.468 0 0 0 .469-.469V8.35c-.007-1.131-1.007-1.975-2.175-1.975zM11.25 10h.938v1.875h-.938V10zm1.563 0h.937v1.875h-.938V10z"/>
</svg>
