<svg xmlns="http://www.w3.org/2000/svg" width="14" height="14" fill="none" viewBox="0 0 14 14">
    <g clip-path="url(#a)">
        <path fill="#FCB7A0" d="M12.639 7.41l-2.546.681-.982-.566V6.463l.97-.557 2.558.685a.595.595 0 0 0 .308-1.15l-1.403-.375 1.293-.742a.595.595 0 0 0-.593-1.033l-1.295.744.376-1.402a.595.595 0 1 0-1.15-.309l-.682 2.547-.976.56-.926-.535V3.774l1.872-1.872a.595.595 0 0 0-.841-.842l-1.03 1.03V.596a.595.595 0 0 0-1.19 0v1.488L5.377 1.06a.595.595 0 1 0-.841.842l1.864 1.864v1.135l-.918.53-.977-.56-.682-2.546a.596.596 0 0 0-1.149.308l.376 1.402-1.295-.744a.594.594 0 1 0-.593 1.032l1.293.743-1.402.375a.595.595 0 0 0 .307 1.15l2.558-.686.97.557v1.063l-.981.567L1.36 7.41a.594.594 0 1 0-.308 1.15l1.398.374-1.29.744a.595.595 0 1 0 .596 1.03l1.295-.747-.377 1.408a.595.595 0 1 0 1.15.307L4.51 9.12l.974-.563.917.53v1.148L4.537 12.1a.595.595 0 1 0 .841.841l1.023-1.023v1.488a.595.595 0 1 0 1.19 0V11.91l1.03 1.03a.592.592 0 0 0 .842 0 .595.595 0 0 0 0-.841l-1.872-1.872V9.09l.925-.534.975.563.685 2.556a.595.595 0 1 0 1.149-.307l-.377-1.408 1.295.747a.593.593 0 0 0 .813-.218.595.595 0 0 0-.218-.812l-1.288-.743 1.396-.375a.594.594 0 1 0-.307-1.15zm-4.718.115L7 8.057l-.92-.532-.001-1.064L7 5.929l.92.533v1.063z"/>
    </g>
    <defs>
        <clipPath id="a">
            <path fill="#fff" d="M0 0h14v14H0z"/>
        </clipPath>
    </defs>
</svg>
