<svg xmlns="http://www.w3.org/2000/svg" width="40" height="40" fill="none" viewBox="0 0 40 40">
    <g fill="#fff" clip-path="url(#a)">
        <path d="M39.333 31.666h-.74a4.653 4.653 0 0 0-.868-7.333 4.666 4.666 0 0 0 2.274-4 4.673 4.673 0 0 0-4.666-4.666h-6V11a.667.667 0 0 0-.768-.659l-7.899 1.215v-.623a3.34 3.34 0 0 0 2.667-3.266c0-2.91-2.745-5.688-2.862-5.805a.667.667 0 0 0-.943 0c-.117.117-2.861 2.895-2.861 5.805a3.34 3.34 0 0 0 2.666 3.266v.83l-8.101 1.246a.667.667 0 0 0-.566.658v7.427A7.296 7.296 0 0 0 9 19.757a.667.667 0 0 0-.667 0 7.366 7.366 0 0 0-3.6 5.39 7.236 7.236 0 0 0-1.4-.147c-.294.001-.588.02-.88.057a.667.667 0 0 0-.533.4 7.327 7.327 0 0 0 2.538 8.876H0v1.333h1.588l1.149 2.298a.667.667 0 0 0 .596.37h25.333a.667.667 0 0 0 .667-.668v-2h4.255l1.148 2.298a.667.667 0 0 0 .597.37h2.666a.667.667 0 0 0 .667-.668v-2h.667a.667.667 0 0 0 .666-.666v-2.667a.667.667 0 0 0-.666-.666zm-.667-3.333a3.337 3.337 0 0 1-3.333 3.334h-12a3.333 3.333 0 0 1 0-6.667H32a2 2 0 1 1 0 4h-6.667a.667.667 0 0 1 0-1.334H30v-1.333h-4.667a2 2 0 0 0 0 4H32A3.337 3.337 0 0 0 35.333 27a3.298 3.298 0 0 0-.684-2h.684a3.337 3.337 0 0 1 3.333 3.333zM33.333 17a2 2 0 1 1 0 4h-6.667a.667.667 0 0 1 0-1.333h4.667v-1.334h-4.667a2 2 0 0 0 0 4h6.667A3.337 3.337 0 0 0 36.666 19c0-.688-.216-1.358-.616-1.917a3.333 3.333 0 0 1-.717 6.584H26A3.333 3.333 0 0 1 26 17h7.333zM18 7.667c0-1.705 1.283-3.478 2-4.334.717.856 2 2.625 2 4.334a2 2 0 0 1-1.334 1.877v-1.21h-1.333v1.21A2 2 0 0 1 18 7.667zM8.667 21.119a6.02 6.02 0 0 1 2.63 4.404 7.349 7.349 0 0 0-2.624 1.785 7.379 7.379 0 0 0-2.637-1.775 6.02 6.02 0 0 1 2.63-4.414zm3.344 5.553a6.002 6.002 0 0 1 2.317-.328 6 6 0 0 1-5.99 7.978 6 6 0 0 1 3.673-7.65zm-9.344 1.661c-.001-.677.113-1.35.338-1.988a5.938 5.938 0 0 1 4.83 2.033 7.22 7.22 0 0 0-.954 5.684 6 6 0 0 1-4.214-5.729zM13.587 37H3.746l-.666-1.334h11.175L13.588 37zM20 37h-4.921l.666-1.334h1.588v-1.333H12.87a7.322 7.322 0 0 0 2.543-8.875.667.667 0 0 0-.533-.4 7.026 7.026 0 0 0-2.278.08A7.303 7.303 0 0 0 11.957 23H12v-8.761l16-2.462v3.89h-2a4.66 4.66 0 0 0-3.22 8.036 4.66 4.66 0 0 0-2.706 7.963h-.74a.667.667 0 0 0-.668.667V35c0 .368.299.666.667.666H20V37zm2.921 0h-1.588v-1.334h2.255L22.92 37zM28 37h-3.588l.666-1.334H28V37zm9.333 0h-1.588l-.667-1.334h2.255V37zm1.333-2.667H20V33h18.666v1.333z"/>
        <path d="M14.666 15.667h-1.333V21h1.333v-5.333zM14.666 22.333h-1.333v1.334h1.333v-1.334z"/>
    </g>
    <defs>
        <clipPath id="a">
            <path fill="#fff" d="M0 0h40v40H0z"/>
        </clipPath>
    </defs>
</svg>
