<svg xmlns="http://www.w3.org/2000/svg" width="14" height="14" fill="none" viewBox="0 0 14 14">
    <path fill="#FCB7A0" stroke="#FCB7A0" stroke-width=".2" d="M9.413 6.014a.386.386 0 0 1 .5.218 3.82 3.82 0 0 1-3.55 5.219A3.82 3.82 0 0 1 2.55 7.635a3.82 3.82 0 0 1 5.223-3.548l1.642 1.927zm0 0a.386.386 0 0 0-.218.502m.218-.502l-.218.502m0 0a3.047 3.047 0 0 1-2.831 4.162 3.047 3.047 0 0 1-3.043-3.043 3.047 3.047 0 0 1 4.164-2.83.386.386 0 0 0 .502-.216m1.208 1.927L7.987 4.589m0 0a.386.386 0 0 0-.216-.502l.216.502z"/>
    <path fill="#FCB7A0" stroke="#FCB7A0" stroke-width=".2" d="M8.156 2.795a.386.386 0 0 0-.264-.477A5.537 5.537 0 0 0 .834 7.635a5.537 5.537 0 0 0 5.53 5.53 5.537 5.537 0 0 0 5.318-7.055.386.386 0 0 0-.743.213 4.764 4.764 0 0 1-4.575 6.07 4.764 4.764 0 0 1-4.758-4.758A4.764 4.764 0 0 1 7.678 3.06a.386.386 0 0 0 .478-.265zm0 0l-.096-.027m.096.027l-.096-.027m0 0a.286.286 0 0 1-.354.196l3.526 2.977a.286.286 0 0 1 .354.197 5.437 5.437 0 0 1-5.221 6.928A5.437 5.437 0 0 1 .932 7.635a5.437 5.437 0 0 1 6.931-5.221c.152.043.24.202.196.354z"/>
    <path fill="#FCB7A0" stroke="#FCB7A0" stroke-width=".2" d="M8.038 7.1c.212-.018.4.138.419.35m-.419-.35l.419.35m-.419-.35a.386.386 0 0 0-.35.42l.35-.42zm.419.35c.005.061.008.123.008.184m-.008-.183l.008.184M6.483 6.31a1.33 1.33 0 0 0-1.448 1.323l1.448-1.323zm0 0c.213.02.4-.137.42-.35m-.42.35l.42-.35m0 0a.386.386 0 0 0-.349-.42m.35.42l-.35-.42m0 0a2.103 2.103 0 0 0-2.291 2.093c0 1.16.943 2.101 2.101 2.101 1.159 0 2.101-.942 2.101-2.1m-1.91-2.093l1.91 2.093m-.777-.115a1.33 1.33 0 0 1-1.323 1.443 1.33 1.33 0 0 1-1.33-1.328l2.653-.115z"/>
    <path fill="#FCB7A0" stroke="#FCB7A0" stroke-width=".2" d="M6.202 7.8a.386.386 0 0 1 0-.547l2.297-2.297V3.377c0-.255.1-.496.28-.677l1.668-1.668a.67.67 0 0 1 .733-.146L6.202 7.799zm0 0a.385.385 0 0 0 .546 0l2.297-2.298h1.579c.256 0 .497-.1.678-.28l-.071-.071.07.07 1.668-1.667a.67.67 0 0 0 .146-.733L6.202 7.799zm3.07-4.345v-.078c0-.05.019-.096.054-.131l1.497-1.497v.883L9.271 4.183v-.728zm1.483 1.22a.188.188 0 0 1-.131.055h-.806l1.551-1.552h.883l-1.497 1.497z"/>
</svg>
