<svg xmlns="http://www.w3.org/2000/svg" width="40" height="40" fill="none" viewBox="0 0 40 40">
    <path fill="#565656" d="M15 31.25a2.5 2.5 0 1 0 0 5 2.5 2.5 0 0 0 0-5zM15 35a1.25 1.25 0 1 1 0-2.5 1.25 1.25 0 0 1 0 2.5z"/>
    <path fill="#565656" d="M36.25 33.75a2.477 2.477 0 0 0-1.625.616l-.875-.875V23.125h2.5v-3.75H35v-15h-1.375c.08-.199.122-.41.125-.625 0-1.183-.77-2.5-1.875-2.5a1.615 1.615 0 0 0-1.25.688 1.484 1.484 0 0 0-2.5 0 1.615 1.615 0 0 0-1.25-.688C25.77 1.25 25 2.567 25 3.75c.003.214.045.426.125.625H20v15h-1.008l.976-2.927a.625.625 0 0 0-.593-.823h-7.5a.626.626 0 0 0-.592.823l.975 2.927H11.25v-3.75a.626.626 0 0 0-.066-.28l-.559-1.118V12.5a.624.624 0 0 0-.625-.625H7.5a.625.625 0 0 0-.625.625v1.727l-.56 1.119a.625.625 0 0 0-.065.279v3.75H1.875A.625.625 0 0 0 1.25 20v1.875H2.5v-1.25H5v2.5h2.5v11.25h2.543a4.997 4.997 0 0 0 9.914 0h12.91l1.037 1.038a2.493 2.493 0 1 0 2.346-1.663zM31.875 2.5c.2 0 .625.591.625 1.25a.625.625 0 1 1-1.25 0c0-.659.425-1.25.625-1.25zm-2.5 0c.2 0 .625.591.625 1.25a.625.625 0 1 1-1.25 0c0-.659.425-1.25.625-1.25zM26.25 3.75c0-.659.425-1.25.625-1.25s.625.591.625 1.25a.625.625 0 1 1-1.25 0zm7.5 1.875v6.25h-2.615c.074-.2.113-.412.115-.625a1.867 1.867 0 0 0-3.125-1.387 1.866 1.866 0 0 0-.762-.415 1.874 1.874 0 1 0-3.476 0 1.844 1.844 0 0 0-1.272 2.427H21.25v-6.25h12.5zm-10 5.625a.625.625 0 1 1 1.25 0 .625.625 0 0 1-1.25 0zm1.875-1.875a.625.625 0 1 1 0-1.25.625.625 0 0 1 0 1.25zm.625 1.875a.625.625 0 1 1 1.25 0 .625.625 0 0 1-1.25 0zm2.5 0a.625.625 0 1 1 1.25 0 .625.625 0 0 1-1.25 0zm-7.5 1.875h12.5v6.25H32.5v-5h-5v2.5h-5v2.5h-1.25v-6.25zm6.25 6.25h-3.75v-1.25h3.75v1.25zm1.25-3.75h2.5v3.75h-2.5v-3.75zm-16.008 1.25H15v1.25h1.25v-1.25h2.258l-.834 2.5h-4.098l-.834-2.5zm-4.68-2.22a.625.625 0 0 0 .063-.28v-1.25h1.25v1.25c0 .097.022.193.066.28L10 15.772v1.102H7.5v-1.102l.563-1.119zm-.562 3.47H10v1.25H7.5v-1.25zm-1.25 3.75v-1.25H35v1.25H6.25zm8.75 1.25h12.5v3.125H15v-3.125zM15 37.5a3.75 3.75 0 1 1 0-7.5 3.75 3.75 0 0 1 0 7.5zm17.5-4.375H19.957a4.981 4.981 0 0 0-.325-1.25H27.5v-1.25h-8.603a4.992 4.992 0 0 0-8.854 2.5H8.75v-10h5V27.5h15v-4.375h3.75v10zm3.75 4.375a1.25 1.25 0 1 1 0-2.5 1.25 1.25 0 0 1 0 2.5z"/>
    <path fill="#565656" d="M28.75 30.625v1.25h2.5V26.25H30v4.375h-1.25zM10 24.375h1.25v1.25H10v-1.25zM11.25 26.875h1.25v1.25h-1.25v-1.25z"/>
</svg>
