<svg xmlns="http://www.w3.org/2000/svg" width="20" height="20" fill="none" viewBox="0 0 20 20">
    <path fill="#FCBBA4" d="M10 0C5.368 0 1.579.526 1.579 4.21v10c0 2 1.684 3.685 3.684 3.685l-1.579 1.579V20h12.632v-.526l-1.58-1.58c2 0 3.685-1.683 3.685-3.683v-10C18.421.526 14.631 0 10 0zM5.263 15.79c-.842 0-1.579-.737-1.579-1.58 0-.842.737-1.578 1.58-1.578.841 0 1.578.736 1.578 1.579 0 .842-.737 1.579-1.579 1.579zm3.684-6.316H3.684V4.21h5.263v5.263zm5.79 6.316c-.842 0-1.58-.737-1.58-1.58 0-.842.738-1.578 1.58-1.578.842 0 1.579.736 1.579 1.579 0 .842-.737 1.579-1.58 1.579zm1.579-6.316h-5.263V4.21h5.263v5.263z"/>
</svg>
