<svg xmlns="http://www.w3.org/2000/svg" width="23" height="23" fill="none" viewBox="0 0 23 23">
    <path fill="#fff" d="M8.625 3.833v-.958a.958.958 0 0 1 .958-.958h3.834a.958.958 0 0 1 .958.958v.958h3.833a1.917 1.917 0 0 1 1.917 1.917v.958a1.916 1.916 0 0 1-1.917 1.917h-.127l-.652 9.775a2.875 2.875 0 0 1-2.868 2.683H8.458a2.875 2.875 0 0 1-2.868-2.68l-.667-9.778h-.131a1.917 1.917 0 0 1-1.917-1.917V5.75a1.917 1.917 0 0 1 1.917-1.917h3.833zm9.583 1.917H4.792v.958h13.416V5.75zM6.843 8.625l.659 9.649a.958.958 0 0 0 .956.893h6.103a.958.958 0 0 0 .956-.895l.642-9.647H6.844zm2.74.958a.958.958 0 0 1 .959.959v6.708a.958.958 0 0 1-1.917 0v-6.708a.958.958 0 0 1 .958-.959zm3.834 0a.958.958 0 0 1 .958.959v6.708a.958.958 0 0 1-1.917 0v-6.708a.958.958 0 0 1 .959-.959z"/>
</svg>
