<svg xmlns="http://www.w3.org/2000/svg" width="21" height="21" fill="none" viewBox="0 0 21 21">
    <path fill="#fff" fill-rule="evenodd" d="M15.703 18.699v-3.01c1.995-.447 3.894-2.578 3.894-5.145C19.597 7.65 17.434 0 15.067 0c-2.366 0-4.534 7.65-4.534 10.544 0 2.51 1.986 4.608 3.916 5.117v2.92a81.122 81.122 0 0 0-3.952-.096c-1.346 0-2.69.087-4.025.26v-3.53c1.389-.41 2.586-1.872 2.586-3.632 0-2.074-1.438-7.636-3.206-7.636-1.771 0-3.205 5.562-3.205 7.636 0 1.789 1.188 3.276 2.616 3.658v3.69C2.12 19.475 0 20.4 0 21h21c-.001-.602-2.135-2.022-5.297-2.301z" clip-rule="evenodd"/>
</svg>
