<svg xmlns="http://www.w3.org/2000/svg" width="35" height="35" fill="none" viewBox="0 0 35 35">
    <path fill="#FCBBA4" d="M17.5 0C7.836 0 0 7.836 0 17.5 0 27.163 7.836 35 17.5 35 27.163 35 35 27.163 35 17.5 35 7.836 27.163 0 17.5 0zm7.99 13.645c.008.172.012.345.012.519 0 5.307-4.04 11.428-11.429 11.428a11.37 11.37 0 0 1-6.157-1.804c.315.037.635.055.958.055a8.06 8.06 0 0 0 4.99-1.719 4.02 4.02 0 0 1-3.753-2.79 3.997 3.997 0 0 0 1.814-.069 4.018 4.018 0 0 1-3.223-3.937l.001-.051c.541.3 1.16.482 1.82.502a4.013 4.013 0 0 1-1.788-3.344c0-.735.199-1.425.544-2.019a11.404 11.404 0 0 0 8.28 4.197 4.018 4.018 0 0 1 6.845-3.663 8.055 8.055 0 0 0 2.55-.975 4.033 4.033 0 0 1-1.767 2.222 8.01 8.01 0 0 0 2.307-.632 8.162 8.162 0 0 1-2.004 2.08z"/>
</svg>
