<svg xmlns="http://www.w3.org/2000/svg" width="14" height="14" fill="none" viewBox="0 0 14 14">
    <g fill="#FCB7A0" stroke="#FCB7A0" stroke-width=".2" clip-path="url(#a)">
        <path d="M12.329 9.155a.558.558 0 0 0-.846 0l.77.065m.076-.065l-.076.065m.076-.065l-.076.065m.076-.065a1.6 1.6 0 0 0 1.213.557.558.558 0 0 1 0 1.116 2.713 2.713 0 0 1-1.636-.548m.347-1.06a1.7 1.7 0 0 0 1.289.592.458.458 0 0 1 0 .916 2.613 2.613 0 0 1-1.636-.574m0 .126l.063-.048-.063-.078m0 .126a2.614 2.614 0 0 1-.062-.048l.062-.078m0 .126a2.713 2.713 0 0 1-3.27 0m3.27-.126a2.636 2.636 0 0 1-1.635.574 2.613 2.613 0 0 1-1.636-.574m0 .126a2.43 2.43 0 0 0 .063-.048l-.063-.078m0 .126a2.713 2.713 0 0 1-3.27 0m3.27 0a2.635 2.635 0 0 1-.062-.048l.062-.078m0 0a2.613 2.613 0 0 1-3.27 0m0 .126l3.693-1.125-.076.065a.458.458 0 0 0-.694 0 1.7 1.7 0 0 1-2.576 0 .458.458 0 0 0-.695 0 1.7 1.7 0 0 1-2.576 0 .458.458 0 0 0-.694 0 1.7 1.7 0 0 1-1.289.592.458.458 0 1 0 0 .916 2.613 2.613 0 0 0 1.636-.574m3.27.126a3.035 3.035 0 0 1-.1.072l-.057-.082m.158.01a2.397 2.397 0 0 1-.063-.048l.063-.078m0 .126l.062-.048-.062-.078m0 .126l-3.17.072m3.17-.198c-.051.04-.104.08-.158.116m0 0a2.613 2.613 0 0 1-2.956 0m2.956 0l.057.082a2.714 2.714 0 0 1-3.07 0m.057-.082a2.601 2.601 0 0 1-.157-.116m.157.116l-.056.082m.056-.082l-.056.082m-.101-.198l-.063.078.063.048.062-.048-.062-.078zM11.483 6.488a.558.558 0 0 1 .846 0m-.846 0l.77.065m-.77-.065a1.6 1.6 0 0 1-2.425 0m2.425 0H9.058m3.271 0l-.076.065m.076-.065l-.076.065m.076-.065a1.6 1.6 0 0 0 1.213.557.558.558 0 0 1 0 1.116 2.713 2.713 0 0 1-1.535-.475l.057-.083m.19-1.05a1.7 1.7 0 0 0 1.288.592.458.458 0 0 1 0 .916 2.613 2.613 0 0 1-1.478-.458m0 0l-.057.083a2.98 2.98 0 0 1-.1-.073m.157-.01l-.158.01m0 0a2.713 2.713 0 0 1-3.17.072l.057-.082-.057.083a2.901 2.901 0 0 1-.1-.073 2.713 2.713 0 0 1-3.27 0 2.908 2.908 0 0 1-.102.073l-.057-.083.057.083a2.713 2.713 0 0 1-3.07 0m9.712-.073l-9.655-.01m-.056.083l.056-.083m-.056.083l.056-.083m-.056.083a2.91 2.91 0 0 1-.101-.073m.157-.01a2.615 2.615 0 0 1-.157-.116m0 .126l.062-.048-.062-.078m0 .126a2.713 2.713 0 0 1-1.635.548.558.558 0 1 1 0-1.116 1.6 1.6 0 0 0 1.212-.557.558.558 0 0 1 .845 0 1.6 1.6 0 0 0 2.426 0 .558.558 0 0 1 .845 0 1.6 1.6 0 0 0 2.426 0 .558.558 0 0 1 .845 0M2.094 7.613a2.461 2.461 0 0 1-.063-.048l.063-.078m0 0l6.964-.999m0 0l-.076.065.076-.065zM1.993 5.019a2.713 2.713 0 0 1-1.535.475.558.558 0 1 1 0-1.116 1.6 1.6 0 0 0 1.213-.557.558.558 0 0 1 .845 0 1.6 1.6 0 0 0 2.426 0 .558.558 0 0 1 .845 0 1.6 1.6 0 0 0 2.426 0 .558.558 0 0 1 .845 0M1.993 5.02l10.26-1.132.076-.066a.558.558 0 0 0-.846 0 1.6 1.6 0 0 1-2.425 0M1.993 5.02l.1-.073m-.1.073l.1-.073m6.965-1.125l-.076.066.076-.066zM2.094 4.946l.1.073.057-.083a2.613 2.613 0 0 0 3.114-.116l-3.271.126zm6.541 0a2.713 2.713 0 0 1-3.27 0 2.908 2.908 0 0 1-.101.073l3.371-.073zm0 0c.034.025.067.05.101.073l.057-.083-.057.083a2.713 2.713 0 0 0 3.17-.073c.034.025.067.05.101.073l-3.372-.073z"/>
    </g>
    <defs>
        <clipPath id="a">
            <path fill="#fff" d="M0 0h14v14H0z"/>
        </clipPath>
    </defs>
</svg>
