<svg xmlns="http://www.w3.org/2000/svg" width="16" height="15" fill="none" viewBox="0 0 16 15">
    <g fill="#B0B0B0" clip-path="url(#a)">
        <path d="M7.737 13.144c.994 0 1.8-.784 1.8-1.752S8.73 9.64 7.737 9.64s-1.8.784-1.8 1.752.806 1.752 1.8 1.752z"/>
        <path d="M12.037 7.17c-.026-.027-.054-.05-.082-.075l-.08-.074c-.014-.014-.029-.024-.046-.037-2.327-2.059-5.887-1.977-8.108.185l-.26.255-.36.35a1.08 1.08 0 0 0 .002 1.554c.44.43 1.156.43 1.595.003l.621-.606c1.412-1.374 3.71-1.374 5.12 0l.45.423a1.14 1.14 0 0 0 1.58-.004 1.07 1.07 0 0 0 .003-1.538l-.434-.436z"/>
        <path d="M15.103 5.004l-.374-.364c-.001-.002-.002-.004-.005-.005l-.295-.289a1.06 1.06 0 0 0-.168-.13C10.47.973 4.701 1.073 1.03 4.512c-.017.016-.037.027-.055.045l-.675.658A.982.982 0 0 0 .303 6.63a1.046 1.046 0 0 0 1.453.003l.675-.656c.005-.006.008-.011.013-.015 2.969-2.793 7.678-2.81 10.671-.057l.531.518c.4.39 1.052.388 1.454-.004a.984.984 0 0 0 .003-1.415z"/>
    </g>
    <defs>
        <clipPath id="a">
            <path fill="#fff" d="M0 0h15.402v15H0z"/>
        </clipPath>
    </defs>
</svg>
