<svg xmlns="http://www.w3.org/2000/svg" width="17" height="16" fill="none" viewBox="0 0 17 16">
    <path fill="#B0B0B0" d="M16.005 14.85l-5.211-5.194A5.933 5.933 0 0 0 12.04 6a5.954 5.954 0 0 0-1.764-4.242A5.986 5.986 0 0 0 6.02 0C4.413 0 2.9.626 1.764 1.758A5.942 5.942 0 0 0 0 6c0 1.602.628 3.11 1.764 4.242A5.982 5.982 0 0 0 6.02 12c1.344 0 2.62-.436 3.666-1.24l5.211 5.192a.164.164 0 0 0 .233 0l.875-.87a.164.164 0 0 0 0-.232zM9.2 9.168A4.478 4.478 0 0 1 6.02 10.48c-1.2 0-2.328-.466-3.179-1.312A4.448 4.448 0 0 1 1.525 6c0-1.196.468-2.322 1.316-3.168A4.478 4.478 0 0 1 6.02 1.52c1.2 0 2.33.464 3.179 1.312A4.448 4.448 0 0 1 10.515 6a4.445 4.445 0 0 1-1.316 3.168z"/>
</svg>
